<svg width="20" height="21" viewBox="0 0 20 21" fill="none" xmlns="http://www.w3.org/2000/svg">
<path d="M14.1667 12.4621C14.3877 12.4621 14.5996 12.3743 14.7559 12.218C14.9122 12.0617 15 11.8498 15 11.6287C15 11.4077 14.9122 11.1958 14.7559 11.0395C14.5996 10.8832 14.3877 10.7954 14.1667 10.7954C13.9457 10.7954 13.7337 10.8832 13.5774 11.0395C13.4211 11.1958 13.3333 11.4077 13.3333 11.6287C13.3333 11.8498 13.4211 12.0617 13.5774 12.218C13.7337 12.3743 13.9457 12.4621 14.1667 12.4621ZM14.1667 15.7954C14.3877 15.7954 14.5996 15.7076 14.7559 15.5513C14.9122 15.3951 15 15.1831 15 14.9621C15 14.7411 14.9122 14.5291 14.7559 14.3728C14.5996 14.2165 14.3877 14.1287 14.1667 14.1287C13.9457 14.1287 13.7337 14.2165 13.5774 14.3728C13.4211 14.5291 13.3333 14.7411 13.3333 14.9621C13.3333 15.1831 13.4211 15.3951 13.5774 15.5513C13.7337 15.7076 13.9457 15.7954 14.1667 15.7954ZM10.8333 11.6287C10.8333 11.8498 10.7455 12.0617 10.5893 12.218C10.433 12.3743 10.221 12.4621 10 12.4621C9.77899 12.4621 9.56702 12.3743 9.41074 12.218C9.25446 12.0617 9.16667 11.8498 9.16667 11.6287C9.16667 11.4077 9.25446 11.1958 9.41074 11.0395C9.56702 10.8832 9.77899 10.7954 10 10.7954C10.221 10.7954 10.433 10.8832 10.5893 11.0395C10.7455 11.1958 10.8333 11.4077 10.8333 11.6287ZM10.8333 14.9621C10.8333 15.1831 10.7455 15.3951 10.5893 15.5513C10.433 15.7076 10.221 15.7954 10 15.7954C9.77899 15.7954 9.56702 15.7076 9.41074 15.5513C9.25446 15.3951 9.16667 15.1831 9.16667 14.9621C9.16667 14.7411 9.25446 14.5291 9.41074 14.3728C9.56702 14.2165 9.77899 14.1287 10 14.1287C10.221 14.1287 10.433 14.2165 10.5893 14.3728C10.7455 14.5291 10.8333 14.7411 10.8333 14.9621ZM5.83333 12.4621C6.05435 12.4621 6.26631 12.3743 6.42259 12.218C6.57887 12.0617 6.66667 11.8498 6.66667 11.6287C6.66667 11.4077 6.57887 11.1958 6.42259 11.0395C6.26631 10.8832 6.05435 10.7954 5.83333 10.7954C5.61232 10.7954 5.40036 10.8832 5.24408 11.0395C5.0878 11.1958 5 11.4077 5 11.6287C5 11.8498 5.0878 12.0617 5.24408 12.218C5.40036 12.3743 5.61232 12.4621 5.83333 12.4621ZM5.83333 15.7954C6.05435 15.7954 6.26631 15.7076 6.42259 15.5513C6.57887 15.3951 6.66667 15.1831 6.66667 14.9621C6.66667 14.7411 6.57887 14.5291 6.42259 14.3728C6.26631 14.2165 6.05435 14.1287 5.83333 14.1287C5.61232 14.1287 5.40036 14.2165 5.24408 14.3728C5.0878 14.5291 5 14.7411 5 14.9621C5 15.1831 5.0878 15.3951 5.24408 15.5513C5.40036 15.7076 5.61232 15.7954 5.83333 15.7954Z" fill="#222222"/>
<path fill-rule="evenodd" clip-rule="evenodd" d="M5.83331 2.25391C5.99907 2.25391 6.15805 2.31975 6.27526 2.43696C6.39247 2.55417 6.45831 2.71315 6.45831 2.87891V3.51474C7.00998 3.50391 7.61748 3.50391 8.28581 3.50391H11.7133C12.3825 3.50391 12.99 3.50391 13.5416 3.51474V2.87891C13.5416 2.71315 13.6075 2.55417 13.7247 2.43696C13.8419 2.31975 14.0009 2.25391 14.1666 2.25391C14.3324 2.25391 14.4914 2.31975 14.6086 2.43696C14.7258 2.55417 14.7916 2.71315 14.7916 2.87891V3.56807C15.0083 3.58474 15.2136 3.60585 15.4075 3.63141C16.3841 3.76307 17.175 4.03974 17.7991 4.66307C18.4225 5.28724 18.6991 6.07807 18.8308 7.05474C18.9583 8.00474 18.9583 9.21724 18.9583 10.7489V12.5089C18.9583 14.0406 18.9583 15.2539 18.8308 16.2031C18.6991 17.1797 18.4225 17.9706 17.7991 18.5947C17.175 19.2181 16.3841 19.4947 15.4075 19.6264C14.4575 19.7539 13.245 19.7539 11.7133 19.7539H8.28748C6.75581 19.7539 5.54248 19.7539 4.59331 19.6264C3.61665 19.4947 2.82581 19.2181 2.20165 18.5947C1.57831 17.9706 1.30165 17.1797 1.16998 16.2031C1.04248 15.2531 1.04248 14.0406 1.04248 12.5089V10.7489C1.04248 9.21724 1.04248 8.00391 1.16998 7.05474C1.30165 6.07807 1.57831 5.28724 2.20165 4.66307C2.82581 4.03974 3.61665 3.76307 4.59331 3.63141C4.78776 3.60585 4.99304 3.58474 5.20915 3.56807V2.87891C5.20915 2.71329 5.27488 2.55445 5.39191 2.43726C5.50894 2.32007 5.6677 2.25413 5.83331 2.25391ZM4.75831 4.87057C3.92081 4.98307 3.43748 5.19474 3.08498 5.54724C2.73248 5.89974 2.52081 6.38307 2.40831 7.22057C2.38943 7.36224 2.37331 7.51196 2.35998 7.66974H17.64C17.6266 7.51196 17.6105 7.36196 17.5916 7.21974C17.4791 6.38224 17.2675 5.89891 16.915 5.54641C16.5625 5.19391 16.0791 4.98224 15.2408 4.86974C14.385 4.75474 13.2558 4.75307 11.6666 4.75307H8.33331C6.74415 4.75307 5.61581 4.75557 4.75831 4.87057ZM2.29165 10.7956C2.29165 10.0839 2.29165 9.46474 2.30248 8.92057H17.6975C17.7083 9.46474 17.7083 10.0839 17.7083 10.7956V12.4622C17.7083 14.0514 17.7066 15.1806 17.5916 16.0372C17.4791 16.8747 17.2675 17.3581 16.915 17.7106C16.5625 18.0631 16.0791 18.2747 15.2408 18.3872C14.385 18.5022 13.2558 18.5039 11.6666 18.5039H8.33331C6.74415 18.5039 5.61581 18.5022 4.75831 18.3872C3.92081 18.2747 3.43748 18.0631 3.08498 17.7106C2.73248 17.3581 2.52081 16.8747 2.40831 16.0364C2.29331 15.1806 2.29165 14.0514 2.29165 12.4622V10.7956Z" fill="#222222"/>
</svg>
