<svg width="39" height="39" viewBox="0 0 39 39" fill="none" xmlns="http://www.w3.org/2000/svg">
<path d="M26.8125 11.2734C26.4824 11.2734 26.1968 11.1528 25.9556 10.9116C25.7144 10.6704 25.5938 10.3848 25.5938 10.0547C25.5938 9.40723 25.7144 8.78516 25.9556 8.18848C26.1968 7.5918 26.5522 7.06494 27.022 6.60791L28.5264 5.08447C29.0088 4.60205 29.25 4.02441 29.25 3.35156C29.25 3.02148 29.3706 2.73584 29.6118 2.49463C29.853 2.25342 30.1387 2.13281 30.4688 2.13281C30.7988 2.13281 31.0845 2.25342 31.3257 2.49463C31.5669 2.73584 31.6875 3.02148 31.6875 3.35156C31.6875 3.99902 31.5669 4.62109 31.3257 5.21777C31.0845 5.81445 30.729 6.34131 30.2593 6.79834L28.7549 8.32178C28.2725 8.8042 28.0312 9.38184 28.0312 10.0547C28.0312 10.3848 27.9106 10.6704 27.6694 10.9116C27.4282 11.1528 27.1426 11.2734 26.8125 11.2734ZM19.5 11.2734C19.1699 11.2734 18.8843 11.1528 18.6431 10.9116C18.4019 10.6704 18.2812 10.3848 18.2812 10.0547C18.2812 9.40723 18.4019 8.78516 18.6431 8.18848C18.8843 7.5918 19.2397 7.06494 19.7095 6.60791L21.2139 5.08447C21.6963 4.60205 21.9375 4.02441 21.9375 3.35156C21.9375 3.02148 22.0581 2.73584 22.2993 2.49463C22.5405 2.25342 22.8262 2.13281 23.1562 2.13281C23.4863 2.13281 23.772 2.25342 24.0132 2.49463C24.2544 2.73584 24.375 3.02148 24.375 3.35156C24.375 3.99902 24.2544 4.62109 24.0132 5.21777C23.772 5.81445 23.4165 6.34131 22.9468 6.79834L21.4424 8.32178C20.96 8.8042 20.7188 9.38184 20.7188 10.0547C20.7188 10.3848 20.5981 10.6704 20.3569 10.9116C20.1157 11.1528 19.8301 11.2734 19.5 11.2734ZM35.3438 14.625C35.8516 14.625 36.3276 14.7202 36.772 14.9106C37.2163 15.1011 37.6035 15.3613 37.9336 15.6914C38.2637 16.0215 38.5239 16.4087 38.7144 16.853C38.9048 17.2974 39 17.7734 39 18.2812V25.5938C39 26.1016 38.9048 26.5776 38.7144 27.022C38.5239 27.4663 38.2637 27.8535 37.9336 28.1836C37.6035 28.5137 37.2163 28.7739 36.772 28.9644C36.3276 29.1548 35.8516 29.25 35.3438 29.25H34.2583C34.2329 29.3389 34.2139 29.4214 34.2012 29.4976C34.1885 29.5737 34.1631 29.6499 34.125 29.7261V30.4688C34.125 31.3066 33.9663 32.0938 33.6489 32.8301C33.3315 33.5664 32.8936 34.2139 32.335 34.7725C31.7764 35.3311 31.1289 35.769 30.3926 36.0864C29.6562 36.4038 28.8691 36.5625 28.0312 36.5625H20.7188C19.7285 36.5625 18.8145 36.3403 17.9766 35.896C17.1387 35.4517 16.4404 34.8613 15.8818 34.125H6.36035C5.52246 34.125 4.73535 33.9663 3.99902 33.6489C3.2627 33.3315 2.61523 32.8999 2.05664 32.354C1.49805 31.8081 1.06006 31.1606 0.742676 30.4116C0.425293 29.6626 0.266602 28.8691 0.266602 28.0312V26.8125H5.1416C5.1416 25.8096 5.33203 24.8638 5.71289 23.9751C6.09375 23.0864 6.62061 22.312 7.29346 21.6519C7.96631 20.9917 8.74072 20.4648 9.6167 20.0713C10.4927 19.6777 11.4385 19.4873 12.4541 19.5C12.835 19.5 13.2031 19.5317 13.5586 19.5952C13.9141 19.6587 14.2695 19.7476 14.625 19.8618V12.1875H34.125V14.625H35.3438ZM12.4541 21.9375C11.7812 21.9375 11.1528 22.0645 10.5688 22.3184C9.98486 22.5723 9.46436 22.9214 9.00732 23.3657C8.55029 23.8101 8.20117 24.3242 7.95996 24.9082C7.71875 25.4922 7.5918 26.127 7.5791 26.8125H14.625V22.4707C14.2949 22.3057 13.9521 22.1787 13.5967 22.0898C13.2412 22.001 12.8604 21.9502 12.4541 21.9375ZM6.36035 31.6875H14.7583C14.6694 31.3193 14.625 30.9131 14.625 30.4688V29.25H2.91357C3.04053 29.6055 3.21826 29.9292 3.44678 30.2212C3.67529 30.5132 3.93555 30.7734 4.22754 31.002C4.51953 31.2305 4.84961 31.3955 5.21777 31.4971C5.58594 31.5986 5.9668 31.6621 6.36035 31.6875ZM15.1772 32.9634V32.9824L15.1963 33.0205V33.0015L15.1772 32.9634ZM31.6875 30.4688V14.625H17.0625V30.4688C17.0625 30.9766 17.1577 31.4526 17.3481 31.897C17.5386 32.3413 17.7988 32.7285 18.1289 33.0586C18.459 33.3887 18.8462 33.6489 19.2905 33.8394C19.7349 34.0298 20.2109 34.125 20.7188 34.125H28.0312C28.5391 34.125 29.0151 34.0298 29.4595 33.8394C29.9038 33.6489 30.291 33.3887 30.6211 33.0586C30.9512 32.7285 31.2114 32.3413 31.4019 31.897C31.5923 31.4526 31.6875 30.9766 31.6875 30.4688ZM36.5625 25.5938V18.2812C36.5625 17.9512 36.4419 17.6655 36.2007 17.4243C35.9595 17.1831 35.6738 17.0625 35.3438 17.0625H34.125V26.8125H35.3438C35.6738 26.8125 35.9595 26.6919 36.2007 26.4507C36.4419 26.2095 36.5625 25.9238 36.5625 25.5938Z" fill="#28C5BF"/>
</svg>
