<svg width="32" height="31" viewBox="0 0 32 31" fill="none" xmlns="http://www.w3.org/2000/svg">
<path d="M15.6042 6.45831C11.7292 6.45831 8.5 9.68748 8.5 13.5625C8.5 17.1791 11.3417 20.2792 14.9583 20.6666V23.25H12.375V24.5417H14.9583V27.125H16.25V24.5417H18.8333V23.25H16.25V20.6666C19.8667 20.2792 22.7083 17.3083 22.7083 13.5625C22.7083 9.68748 19.4792 6.45831 15.6042 6.45831ZM15.6042 7.74998C18.8333 7.74998 21.4167 10.3333 21.4167 13.5625C21.4167 16.7916 18.8333 19.375 15.6042 19.375C12.375 19.375 9.79167 16.7916 9.79167 13.5625C9.79167 10.3333 12.375 7.74998 15.6042 7.74998Z" fill="#222222"/>
</svg>
