<svg width="25" height="24" viewBox="0 0 25 24" fill="none" xmlns="http://www.w3.org/2000/svg">
<path d="M6.03095 2.3999H6.01535C5.94292 2.40143 5.87137 2.41607 5.80415 2.4431C5.70696 2.48158 5.62151 2.54478 5.55626 2.62645C5.49101 2.70812 5.44823 2.80541 5.43215 2.9087C5.41295 3.0215 4.82495 6.7139 4.82495 8.3999C4.82495 9.5399 5.35535 10.5563 6.18095 11.2139C6.48095 11.4551 6.62495 11.7167 6.62495 11.9351V12.5351C6.62495 12.5567 6.62375 12.5783 6.62135 12.5999C6.58895 12.9119 6.44015 14.3147 6.29975 15.7571C6.16175 17.1791 6.02495 18.6971 6.02495 19.1999C6.02495 19.8364 6.27781 20.4469 6.72789 20.897C7.17798 21.347 7.78843 21.5999 8.42495 21.5999C9.06147 21.5999 9.67192 21.347 10.122 20.897C10.5721 20.4469 10.825 19.8364 10.825 19.1999C10.825 18.6959 10.6882 17.1791 10.5502 15.7571C10.4476 14.7046 10.3404 13.6526 10.2286 12.6011L10.225 12.5351V11.9351C10.225 11.7155 10.369 11.4551 10.669 11.2139C11.0918 10.8768 11.4333 10.4488 11.6681 9.96164C11.9028 9.47447 12.0248 8.94068 12.025 8.3999C12.025 6.7103 11.4334 3.0011 11.4178 2.9075C11.4001 2.79472 11.3507 2.68931 11.2752 2.60365C11.1997 2.51799 11.1014 2.45564 10.9918 2.4239C10.9414 2.40917 10.8894 2.4011 10.837 2.3999H10.813H10.8142C10.6543 2.40117 10.5014 2.46557 10.3887 2.57908C10.2761 2.69259 10.2129 2.84601 10.213 3.0059V7.8059C10.2146 7.88391 10.2009 7.96147 10.1726 8.03418C10.1442 8.10688 10.1019 8.17329 10.0479 8.22961C9.99389 8.28594 9.92934 8.33108 9.85791 8.36246C9.78647 8.39385 9.70956 8.41085 9.63155 8.4125C9.55355 8.41416 9.47598 8.40043 9.40328 8.37211C9.33058 8.34379 9.26417 8.30142 9.20784 8.24743C9.15151 8.19345 9.10637 8.12889 9.07499 8.05746C9.04361 7.98602 9.02661 7.90911 9.02495 7.8311V2.9999C9.02495 2.84077 8.96174 2.68816 8.84922 2.57564C8.73669 2.46312 8.58408 2.3999 8.42495 2.3999C8.26582 2.3999 8.11321 2.46312 8.00069 2.57564C7.88817 2.68816 7.82495 2.84077 7.82495 2.9999V7.7999L7.82615 7.8383C7.82185 7.99584 7.75515 8.14522 7.64072 8.25358C7.52628 8.36194 7.37349 8.4204 7.21595 8.4161C7.05841 8.41181 6.90903 8.3451 6.80067 8.23067C6.69232 8.11623 6.63385 7.96344 6.63815 7.8059V3.0071C6.63815 2.84627 6.57434 2.69201 6.46073 2.57817C6.34712 2.46433 6.19178 2.40022 6.03095 2.3999ZM13.825 7.7999C13.825 6.36773 14.3939 4.99422 15.4066 3.98153C16.4193 2.96883 17.7928 2.3999 19.225 2.3999C19.3841 2.3999 19.5367 2.46312 19.6492 2.57564C19.7617 2.68816 19.825 2.84077 19.825 2.9999V11.3735L19.849 11.6423C19.9425 12.7205 20.0337 13.7989 20.1226 14.8775C20.2714 16.6859 20.425 18.6707 20.425 19.1999C20.425 19.8364 20.1721 20.4469 19.722 20.897C19.2719 21.347 18.6615 21.5999 18.025 21.5999C17.3884 21.5999 16.778 21.347 16.3279 20.897C15.8778 20.4469 15.625 19.8364 15.625 19.1999C15.625 18.6719 15.7786 16.6859 15.9274 14.8775C16.0018 13.9643 16.0774 13.0811 16.1338 12.4271L16.1698 11.9999H15.625C15.1476 11.9999 14.6897 11.8103 14.3522 11.4727C14.0146 11.1351 13.825 10.6773 13.825 10.1999V7.7999Z" fill="#94A3B8"/>
</svg>
