<svg width="44" height="44" viewBox="0 0 44 44" fill="none" xmlns="http://www.w3.org/2000/svg">
<path opacity="0.5" d="M25.0594 24.781C25.1866 24.9082 32.5566 18.6417 32.5566 18.6417L33.3197 8.14696L26.9569 10.8867L16.2181 10.4638L10.8281 8.01978L11.6703 18.3185C11.6669 18.3185 24.9356 24.6573 25.0594 24.781Z" fill="white"/>
<path opacity="0.7" d="M21.5496 2.03833L16.0943 2.56427L11.9796 4.04927L9.68335 6.44177L12.1721 35.3443L12.124 38.9811C12.124 38.9811 15.0424 42.7624 21.9346 42.7624C28.8268 42.7624 32.1749 39.318 32.1749 39.318L32.1268 35.5849L34.3749 6.72708L32.749 4.3827L26.5752 2.41989L21.5496 2.03833Z" fill="#E0E0E0"/>
<path d="M11.6462 18.3046C11.6462 19.243 12.8425 35.6262 13.3684 36.489C13.8944 37.3518 16.6478 40.0468 22.0069 39.9505C27.3659 39.8543 30.6419 37.4927 30.9272 36.678C31.2159 35.8633 32.5531 18.638 32.5531 18.638C32.5531 18.638 32.4087 16.7715 28.5347 15.479C24.6606 14.1865 19.8241 14.458 17.3869 14.953C14.3241 15.5787 11.6462 17.2527 11.6462 18.3046Z" fill="#C0C0C0"/>
<path d="M13.3891 21.529L12.3441 19.4734C12.3441 19.4734 12.3235 18.8649 12.406 18.5006C12.4885 18.1362 13.1107 16.4243 17.1738 15.6131C20.3982 14.9668 24.4922 15.0252 27.4657 15.8365C29.48 16.3865 31.4532 17.4556 31.7247 18.5177C32.0341 19.7243 31.5013 20.2399 31.5013 20.2399L29.4835 23.4643L14.7332 23.2684L13.3891 21.529Z" fill="#E9F8FC"/>
<path d="M14.0077 36.025C14.1384 36.4685 16.2215 39.0535 21.8865 39.0535C27.5515 39.0535 30.0746 36.9497 30.1296 36.4719C30.1846 35.9941 31.783 19.6178 31.783 19.6178C31.783 19.6178 29.4559 22.6463 22.0515 22.5053C14.6471 22.3644 12.3474 19.4597 12.3474 19.4597C12.3474 19.4597 13.8668 35.5507 14.0077 36.025Z" fill="#43B7FF"/>
<path d="M14.4823 13.1141C13.671 13.1657 13.2482 13.7878 13.4167 15.0769C13.5301 15.9432 13.7535 16.8713 14.9017 16.7578C16.0635 16.6444 16.0979 15.431 15.9673 14.74C15.7748 13.7053 15.3829 13.0591 14.4823 13.1141ZM14.8776 17.2666C14.0938 17.3285 13.8395 17.7994 13.9529 19.2019C14.1007 21.0547 15.046 32.6907 15.132 33.7013C15.2145 34.7119 15.6648 35.0763 16.2801 35.0763C16.8954 35.0763 17.4007 34.461 17.3732 33.7597C17.3457 33.0585 16.2801 19.8207 16.1942 19.0644C16.1117 18.3047 15.9707 17.1807 14.8776 17.2666ZM13.2207 37.4688C12.987 38.0772 13.7982 39.3216 15.4104 40.15C17.2082 41.0747 19.2192 40.9338 19.2535 40.1775C19.2879 39.38 18.047 39.5932 16.1701 38.6925C14.6163 37.9466 13.5851 36.5132 13.2207 37.4688Z" fill="white"/>
<path d="M22.7493 41.0748C22.6771 41.6729 25.7571 41.4666 28.1152 40.6554C30.7965 39.7307 31.5837 38.421 31.2743 37.9707C30.9649 37.5204 30.3427 38.6857 27.6924 39.5485C24.0212 40.7345 22.8559 40.1673 22.7493 41.0748Z" fill="#D5D5D5"/>
<path d="M22.3885 11.7768H22.1445C14.417 11.7286 11.5226 9.70396 10.4845 8.44928C9.81074 7.63115 9.59074 6.74084 9.7523 5.87459V5.84709C10.5292 3.52678 14.9086 1.46428 22.0242 1.43678C30.0439 1.40584 34.1551 4.2349 34.3545 6.16334C34.4164 6.78209 34.3029 7.8649 33.3817 8.83428C31.7042 10.5908 27.7339 11.7768 22.3885 11.7768ZM11.3886 6.15646C11.282 6.72365 11.2545 7.18771 11.7392 7.77209C12.4817 8.66928 14.5579 10.5152 22.1376 10.5633H22.392C29.1845 10.5633 31.3535 9.06803 32.261 8.06771C32.7698 7.5074 32.9692 7.0124 32.9107 6.42115C32.7767 5.15271 29.4251 2.72584 22.1101 2.76709C14.3207 2.80834 11.6773 4.78146 11.4264 6.11521L11.3886 6.15646Z" fill="#C8C8C8"/>
<path d="M12.3268 4.76778C12.1721 4.60278 11.6152 4.70934 11.1615 5.23528C10.7593 5.70278 10.223 6.66528 11.0137 7.75496C11.8112 8.85153 14.2965 10.89 22.4296 10.9965C29.779 11.0928 33.2955 8.5834 33.3987 6.88872C33.5018 5.19403 32.4465 5.23528 32.4465 5.46903C32.4465 5.70278 32.6665 6.17371 32.5943 6.7409C32.5083 7.39403 30.879 10.1887 22.3437 10.2093C14.1693 10.23 11.4949 7.58309 11.5224 6.73746C11.5637 5.42434 12.6671 5.12871 12.3268 4.76778Z" fill="white"/>
</svg>
