<svg width="45" height="44" viewBox="0 0 45 44" fill="none" xmlns="http://www.w3.org/2000/svg">
<path opacity="0.5" d="M25.6309 24.781C25.7581 24.9082 33.1281 18.6417 33.1281 18.6417L33.8912 8.14696L27.5284 10.8867L16.7897 10.4638L11.3997 8.01978L12.2418 18.3185C12.2384 18.3185 25.5072 24.6573 25.6309 24.781Z" fill="white"/>
<path opacity="0.7" d="M22.1211 2.03833L16.6658 2.56427L12.5511 4.04927L10.2549 6.44177L12.7436 35.3443L12.6955 38.9811C12.6955 38.9811 15.6139 42.7624 22.5061 42.7624C29.3983 42.7624 32.7464 39.318 32.7464 39.318L32.6983 35.5849L34.9464 6.72708L33.3205 4.3827L27.1468 2.41989L22.1211 2.03833Z" fill="#E0E0E0"/>
<path d="M12.2178 18.3046C12.2178 19.243 13.414 35.6262 13.94 36.489C14.4659 37.3518 17.2193 40.0468 22.5784 39.9505C27.9375 39.8543 31.2134 37.4927 31.4987 36.678C31.7875 35.8633 33.1246 18.638 33.1246 18.638C33.1246 18.638 32.9803 16.7715 29.1062 15.479C25.2322 14.1865 20.3956 14.458 17.9584 14.953C14.8956 15.5787 12.2178 17.2527 12.2178 18.3046Z" fill="#C0C0C0"/>
<path d="M15.0538 13.1141C14.2426 13.1657 13.8197 13.7878 13.9882 15.0769C14.1016 15.9432 14.3251 16.8713 15.4732 16.7578C16.6351 16.6444 16.6694 15.431 16.5388 14.74C16.3463 13.7053 15.9544 13.0591 15.0538 13.1141ZM15.4491 17.2666C14.6654 17.3285 14.411 17.7994 14.5244 19.2019C14.6722 21.0547 15.6176 32.6907 15.7035 33.7013C15.786 34.7119 16.2363 35.0763 16.8516 35.0763C17.4669 35.0763 17.9722 34.461 17.9447 33.7597C17.9172 33.0585 16.8516 19.8207 16.7657 19.0644C16.6832 18.3047 16.5422 17.1807 15.4491 17.2666ZM13.7922 37.4688C13.5585 38.0772 14.3697 39.3216 15.9819 40.15C17.7797 41.0747 19.7907 40.9338 19.8251 40.1775C19.8594 39.38 18.6185 39.5932 16.7416 38.6925C15.1879 37.9466 14.1566 36.5132 13.7922 37.4688Z" fill="white"/>
<path d="M23.3208 41.0748C23.2486 41.6729 26.3286 41.4666 28.6868 40.6554C31.368 39.7307 32.1552 38.421 31.8458 37.9707C31.5365 37.5204 30.9143 38.6857 28.2639 39.5485C24.5927 40.7345 23.4274 40.1673 23.3208 41.0748Z" fill="#D5D5D5"/>
<path d="M22.9601 11.7768H22.716C14.9885 11.7286 12.0941 9.70396 11.056 8.44928C10.3823 7.63115 10.1623 6.74084 10.3238 5.87459V5.84709C11.1007 3.52678 15.4801 1.46428 22.5957 1.43678C30.6154 1.40584 34.7266 4.2349 34.926 6.16334C34.9879 6.78209 34.8745 7.8649 33.9532 8.83428C32.2757 10.5908 28.3054 11.7768 22.9601 11.7768ZM11.9601 6.15646C11.8535 6.72365 11.826 7.18771 12.3107 7.77209C13.0532 8.66928 15.1295 10.5152 22.7091 10.5633H22.9635C29.756 10.5633 31.9251 9.06803 32.8326 8.06771C33.3413 7.5074 33.5407 7.0124 33.4823 6.42115C33.3482 5.15271 29.9966 2.72584 22.6816 2.76709C14.8923 2.80834 12.2488 4.78146 11.9979 6.11521L11.9601 6.15646Z" fill="#C8C8C8"/>
<path d="M12.8983 4.76778C12.7436 4.60278 12.1867 4.70934 11.733 5.23528C11.3308 5.70278 10.7946 6.66528 11.5852 7.75496C12.3827 8.85153 14.868 10.89 23.0011 10.9965C30.3505 11.0928 33.8671 8.5834 33.9702 6.88872C34.0733 5.19403 33.018 5.23528 33.018 5.46903C33.018 5.70278 33.238 6.17371 33.1658 6.7409C33.0799 7.39403 31.4505 10.1887 22.9152 10.2093C14.7408 10.23 12.0664 7.58309 12.0939 6.73746C12.1352 5.42434 13.2386 5.12871 12.8983 4.76778Z" fill="white"/>
</svg>
