<svg width="25" height="24" viewBox="0 0 25 24" fill="none" xmlns="http://www.w3.org/2000/svg">
<path d="M12.5 8V12L15 14.5" stroke="white" stroke-width="1.5" stroke-linecap="round" stroke-linejoin="round"/>
<path d="M4.83809 6.87113L4.08809 6.87413C4.08888 7.07183 4.1677 7.26123 4.3074 7.40112C4.4471 7.54101 4.63639 7.62008 4.83409 7.62113L4.83809 6.87113ZM7.38009 7.63313C7.47858 7.63359 7.5762 7.61465 7.66737 7.57738C7.75854 7.54012 7.84148 7.48526 7.91145 7.41594C7.98142 7.34662 8.03705 7.2642 8.07516 7.17338C8.11328 7.08256 8.13313 6.98512 8.13359 6.88663C8.13405 6.78814 8.11511 6.69052 8.07784 6.59935C8.04057 6.50818 7.98572 6.42525 7.9164 6.35528C7.84708 6.28531 7.76466 6.22968 7.67384 6.19156C7.58302 6.15345 7.48558 6.13359 7.38709 6.13313L7.38009 7.63313ZM5.57509 4.32113C5.57457 4.22264 5.55465 4.12522 5.51647 4.03442C5.47829 3.94363 5.42261 3.86125 5.35259 3.79197C5.28258 3.7227 5.1996 3.6679 5.10841 3.63069C5.01721 3.59349 4.91958 3.57461 4.82109 3.57513C4.7226 3.57566 4.62518 3.59558 4.53438 3.63375C4.44359 3.67193 4.36121 3.72762 4.29193 3.79763C4.22266 3.86765 4.16786 3.95062 4.13065 4.04182C4.09345 4.13301 4.07457 4.23064 4.07509 4.32913L5.57509 4.32113ZM4.32709 10.7851C4.34146 10.6871 4.33627 10.5872 4.31182 10.4912C4.28736 10.3952 4.24413 10.305 4.18462 10.2258C4.12511 10.1466 4.05049 10.08 3.96509 10.0298C3.87968 9.97957 3.78518 9.94678 3.68703 9.93331C3.58888 9.91984 3.48904 9.92594 3.39326 9.95127C3.29749 9.9766 3.20768 10.0207 3.12902 10.0809C3.05037 10.1411 2.98443 10.2163 2.93501 10.3022C2.88559 10.3881 2.85367 10.4829 2.84109 10.5811L4.32709 10.7851ZM19.3621 5.13813C15.5421 1.31813 9.36909 1.27813 5.57409 5.07413L6.63409 6.13413C9.83409 2.93513 15.0571 2.95413 18.3021 6.19813L19.3621 5.13813ZM5.63809 18.8621C9.45809 22.6821 15.6311 22.7221 19.4261 18.9261L18.3661 17.8661C15.1661 21.0651 9.94309 21.0461 6.69809 17.8021L5.63809 18.8621ZM19.4261 18.9261C23.2211 15.1311 23.1821 8.95813 19.3621 5.13813L18.3021 6.19813C21.5461 9.44313 21.5651 14.6661 18.3661 17.8661L19.4261 18.9261ZM5.57409 5.07413L4.30709 6.34013L5.36809 7.40013L6.63409 6.13413L5.57409 5.07413ZM4.83409 7.62113L7.38009 7.63313L7.38709 6.13313L4.84209 6.12113L4.83409 7.62113ZM5.58809 6.86713L5.57509 4.32113L4.07509 4.32913L4.08809 6.87413L5.58809 6.86713ZM2.84009 10.5801C2.63448 12.0827 2.78004 13.6125 3.26535 15.0494C3.75066 16.4862 4.5625 17.791 5.63709 18.8611L6.69709 17.8011C5.78619 16.8945 5.09798 15.789 4.68658 14.5714C4.27517 13.3538 4.15178 12.0574 4.32609 10.7841L2.84009 10.5801Z" fill="white"/>
</svg>
