<svg width="25" height="24" viewBox="0 0 25 24" fill="none" xmlns="http://www.w3.org/2000/svg">
<path d="M13.7234 2.75137C13.2548 2.28275 12.495 2.28275 12.0264 2.75137L3.62637 11.1514C3.15775 11.62 3.15775 12.3798 3.62637 12.8484C4.095 13.3171 4.8548 13.3171 5.32343 12.8484L5.6749 12.497V20.3999C5.6749 21.0626 6.21216 21.5999 6.8749 21.5999H9.2749C9.93764 21.5999 10.4749 21.0626 10.4749 20.3999V17.9999C10.4749 17.3372 11.0122 16.7999 11.6749 16.7999H14.0749C14.7376 16.7999 15.2749 17.3372 15.2749 17.9999V20.3999C15.2749 21.0626 15.8122 21.5999 16.4749 21.5999H18.8749C19.5376 21.5999 20.0749 21.0626 20.0749 20.3999V12.497L20.4264 12.8484C20.895 13.3171 21.6548 13.3171 22.1234 12.8484C22.5921 12.3798 22.5921 11.62 22.1234 11.1514L13.7234 2.75137Z" fill="#94A3B8"/>
</svg>
