<svg width="29" height="29" viewBox="0 0 29 29" fill="none" xmlns="http://www.w3.org/2000/svg">
<path d="M6.25 4.29565C5.65326 4.29565 5.08097 4.53271 4.65901 4.95466C4.23705 5.37662 4 5.94892 4 6.54565V9.54565C4 9.74457 3.92098 9.93533 3.78033 10.076C3.63968 10.2166 3.44891 10.2957 3.25 10.2957C3.05109 10.2957 2.86032 10.2166 2.71967 10.076C2.57902 9.93533 2.5 9.74457 2.5 9.54565V6.54565C2.5 5.55109 2.89509 4.59727 3.59835 3.894C4.30161 3.19074 5.25544 2.79565 6.25 2.79565H9.25C9.44891 2.79565 9.63968 2.87467 9.78033 3.01532C9.92098 3.15598 10 3.34674 10 3.54565C10 3.74457 9.92098 3.93533 9.78033 4.07598C9.63968 4.21664 9.44891 4.29565 9.25 4.29565H6.25ZM6.25 25.2957C5.65326 25.2957 5.08097 25.0586 4.65901 24.6366C4.23705 24.2147 4 23.6424 4 23.0457V20.0457C4 19.8467 3.92098 19.656 3.78033 19.5153C3.63968 19.3747 3.44891 19.2957 3.25 19.2957C3.05109 19.2957 2.86032 19.3747 2.71967 19.5153C2.57902 19.656 2.5 19.8467 2.5 20.0457V23.0457C2.5 24.0402 2.89509 24.994 3.59835 25.6973C4.30161 26.4006 5.25544 26.7957 6.25 26.7957H9.25C9.44891 26.7957 9.63968 26.7166 9.78033 26.576C9.92098 26.4353 10 26.2446 10 26.0457C10 25.8467 9.92098 25.656 9.78033 25.5153C9.63968 25.3747 9.44891 25.2957 9.25 25.2957H6.25ZM25 6.54565C25 5.94892 24.7629 5.37662 24.341 4.95466C23.919 4.53271 23.3467 4.29565 22.75 4.29565H19.75C19.5511 4.29565 19.3603 4.21664 19.2197 4.07598C19.079 3.93533 19 3.74457 19 3.54565C19 3.34674 19.079 3.15598 19.2197 3.01532C19.3603 2.87467 19.5511 2.79565 19.75 2.79565H22.75C23.7446 2.79565 24.6984 3.19074 25.4017 3.894C26.1049 4.59727 26.5 5.55109 26.5 6.54565V9.54565C26.5 9.74457 26.421 9.93533 26.2803 10.076C26.1397 10.2166 25.9489 10.2957 25.75 10.2957C25.5511 10.2957 25.3603 10.2166 25.2197 10.076C25.079 9.93533 25 9.74457 25 9.54565V6.54565ZM22.75 25.2957C23.3467 25.2957 23.919 25.0586 24.341 24.6366C24.7629 24.2147 25 23.6424 25 23.0457V20.0457C25 19.8467 25.079 19.656 25.2197 19.5153C25.3603 19.3747 25.5511 19.2957 25.75 19.2957C25.9489 19.2957 26.1397 19.3747 26.2803 19.5153C26.421 19.656 26.5 19.8467 26.5 20.0457V23.0457C26.5 24.0402 26.1049 24.994 25.4017 25.6973C24.6984 26.4006 23.7446 26.7957 22.75 26.7957H19.75C19.5511 26.7957 19.3603 26.7166 19.2197 26.576C19.079 26.4353 19 26.2446 19 26.0457C19 25.8467 19.079 25.656 19.2197 25.5153C19.3603 25.3747 19.5511 25.2957 19.75 25.2957H22.75ZM16.833 14.8857C16.833 16.1917 15.789 17.2497 14.5 17.2497C13.211 17.2497 12.167 16.1917 12.167 14.8867C12.167 13.5817 13.21 12.5227 14.5 12.5227C15.79 12.5227 16.833 13.5807 16.833 14.8857ZM11.323 8.77665C11.619 8.17665 12.225 7.79665 12.888 7.79665H16.112C16.775 7.79665 17.382 8.17665 17.677 8.77665L18.36 10.1607H19.167C20.455 10.1607 21.5 11.2187 21.5 12.5237V18.4337C21.5 19.7367 20.455 20.7957 19.167 20.7957H9.833C8.545 20.7957 7.5 19.7377 7.5 18.4317V12.5227C7.5 11.2177 8.545 10.1597 9.833 10.1597H10.639L11.323 8.77665ZM18 14.8867C18 12.9297 16.433 11.3427 14.5 11.3427C12.567 11.3427 11 12.9297 11 14.8877C11 16.8457 12.567 18.4327 14.5 18.4327C16.433 18.4327 18 16.8457 18 14.8877" fill="#28C5BF"/>
</svg>
