<svg width="22" height="22" viewBox="0 0 22 22" fill="none" xmlns="http://www.w3.org/2000/svg">
<path d="M16.9452 8.79352C16.2182 8.95164 15.5908 9.35727 15.2969 10.0568C15.1199 10.4813 14.8724 11.5779 14.1935 11.2943C13.8686 11.1602 13.8738 10.6945 13.9116 10.404C13.9924 9.80758 14.2605 9.26274 14.4444 8.69555C14.6335 8.10774 14.7968 7.51649 14.9136 6.90805C15.3055 4.89367 15.1972 2.57336 13.7724 0.962893C13.5318 0.687893 12.925 0.0519552 12.5246 0.0382052C12.2771 0.0313302 12.5211 0.323518 12.5899 0.421486C12.7291 0.62258 12.846 0.840861 12.9354 1.06946C13.9889 3.75758 11.3919 5.80461 9.68519 7.39789C8.86707 8.16274 8.21395 8.97399 7.62613 9.92102C7.5677 10.0121 7.43879 10.318 7.27207 10.2545C7.07441 10.1788 7.05379 9.7268 6.99191 9.55836C6.87504 9.23524 6.69457 8.88289 6.46254 8.63024C6.01395 8.13867 5.3866 7.80696 4.7077 7.85164C4.68191 7.85336 4.60801 7.86539 4.51691 7.88602C4.37426 7.91696 3.9927 7.9668 4.09582 8.19711C4.1491 8.3157 4.30551 8.30539 4.41723 8.33805C5.85066 8.77805 5.81801 10.2802 5.58598 11.4868C5.1666 13.6834 4.00473 15.7596 4.82973 18.018C5.80254 20.6804 8.84816 22.3424 11.6119 21.8852C12.3664 21.7615 13.2361 21.5174 13.9133 21.153C14.6335 20.7646 15.4224 20.2335 15.9844 19.6354C16.708 18.8671 17.1686 17.8823 17.3044 16.839C17.4643 15.6324 17.0793 14.4946 16.7286 13.3551C16.3058 11.9801 15.8194 9.73539 17.576 9.06336C17.6619 9.02899 17.8338 9.0032 17.8939 8.91211C18.1174 8.57867 17.0449 8.77289 16.9452 8.79352Z" fill="#ED6C30"/>
<path d="M11.7099 18.2311C12.0742 18.537 12.5847 18.3875 12.9284 18.1262C13.1124 17.987 13.2705 17.8082 13.3736 17.6003C13.4166 17.5109 13.4664 17.3975 13.4664 17.2961C13.4664 17.1603 13.3856 17.0262 13.42 16.887C13.7088 16.8303 14.0663 17.6604 14.1024 17.8529C14.3911 19.3706 12.9611 20.6218 11.5809 20.8642C9.25204 21.2715 7.91313 19.2314 8.18126 17.4198C8.34798 16.2923 9.10423 15.5171 9.87423 14.7437C10.5119 14.1026 11.1031 13.5526 11.3094 12.719C11.3455 12.5712 11.3369 12.3443 11.2939 12.1982C11.2578 12.0728 11.1891 11.9576 11.1856 11.8218C11.1753 11.5365 11.452 11.9095 11.5156 11.9817C12.2822 12.8462 12.5005 14.1232 12.2959 15.2404C12.1636 15.9623 11.648 16.4779 11.4675 17.1689C11.3627 17.5625 11.373 17.9457 11.7099 18.2311Z" fill="#FCC21B"/>
</svg>
