<svg width="36" height="36" viewBox="0 0 36 36" fill="none" xmlns="http://www.w3.org/2000/svg">
<path d="M17.9051 7.662C18.8663 7.662 19.6456 6.50645 19.6456 5.081C19.6456 3.65555 18.8663 2.5 17.9051 2.5C16.9438 2.5 16.1646 3.65555 16.1646 5.081C16.1646 6.50645 16.9438 7.662 17.9051 7.662Z" fill="#F4AA41"/>
<path d="M17.4685 11.4286C18.1482 10.7489 17.8821 9.38082 16.8741 8.37288C15.8662 7.36494 14.4981 7.09885 13.8184 7.77856C13.1387 8.45827 13.4047 9.82638 14.4127 10.8343C15.4206 11.8423 16.7887 12.1084 17.4685 11.4286Z" fill="#F1B31C"/>
<path d="M17.4685 15.4985C18.1482 14.8188 17.8821 13.4506 16.8741 12.4427C15.8662 11.4348 14.4981 11.1687 13.8184 11.8484C13.1387 12.5281 13.4047 13.8962 14.4127 14.9041C15.4206 15.9121 16.7887 16.1782 17.4685 15.4985Z" fill="#F1B31C"/>
<path d="M17.4685 19.569C18.1482 18.8893 17.8821 17.5212 16.8741 16.5133C15.8662 15.5053 14.4981 15.2392 13.8184 15.9189C13.1387 16.5986 13.4047 17.9668 14.4127 18.9747C15.4206 19.9826 16.7887 20.2487 17.4685 19.569Z" fill="#F1B31C"/>
<path d="M17.4685 23.6396C18.1482 22.9599 17.8821 21.5918 16.8741 20.5838C15.8662 19.5759 14.4981 19.3098 13.8184 19.9895C13.1387 20.6692 13.4047 22.0373 14.4127 23.0453C15.4206 24.0532 16.7887 24.3193 17.4685 23.6396Z" fill="#F1B31C"/>
<path d="M17.4682 27.7096C18.1479 27.0299 17.8818 25.6618 16.8739 24.6539C15.8659 23.6459 14.4978 23.3799 13.8181 24.0596C13.1384 24.7393 13.4045 26.1074 14.4124 27.1153C15.4204 28.1233 16.7885 28.3894 17.4682 27.7096Z" fill="#F1B31C"/>
<path d="M21.5873 10.8341C22.5952 9.82621 22.8613 8.4581 22.1816 7.77839C21.5019 7.09868 20.1338 7.36477 19.1258 8.37271C18.1179 9.38065 17.8518 10.7488 18.5315 11.4285C19.2112 12.1082 20.5793 11.8421 21.5873 10.8341Z" fill="#F1B31C"/>
<path d="M21.5873 14.9042C22.5952 13.8963 22.8613 12.5282 22.1816 11.8485C21.5019 11.1687 20.1338 11.4348 19.1258 12.4428C18.1179 13.4507 17.8518 14.8188 18.5315 15.4985C19.2112 16.1782 20.5793 15.9122 21.5873 14.9042Z" fill="#F1B31C"/>
<path d="M21.5873 18.9748C22.5952 17.9668 22.8613 16.5987 22.1816 15.919C21.5019 15.2393 20.1338 15.5054 19.1258 16.5133C18.1179 17.5213 17.8518 18.8894 18.5315 19.5691C19.2112 20.2488 20.5793 19.9827 21.5873 18.9748Z" fill="#F1B31C"/>
<path d="M21.5873 23.0453C22.5952 22.0374 22.8613 20.6693 22.1816 19.9896C21.5019 19.3099 20.1338 19.5759 19.1258 20.5839C18.1179 21.5918 17.8518 22.9599 18.5315 23.6397C19.2112 24.3194 20.5793 24.0533 21.5873 23.0453Z" fill="#F1B31C"/>
<path d="M21.5868 27.1154C22.5947 26.1075 22.8608 24.7393 22.1811 24.0596C21.5014 23.3799 20.1333 23.646 19.1253 24.654C18.1174 25.6619 17.8513 27.03 18.531 27.7097C19.2107 28.3894 20.5788 28.1233 21.5868 27.1154Z" fill="#F1B31C"/>
<path d="M17.895 28V32.5" stroke="black" stroke-width="0.5" stroke-miterlimit="10"/>
<path d="M17.9051 7.662C18.8663 7.662 19.6456 6.50645 19.6456 5.081C19.6456 3.65555 18.8663 2.5 17.9051 2.5C16.9438 2.5 16.1646 3.65555 16.1646 5.081C16.1646 6.50645 16.9438 7.662 17.9051 7.662Z" fill="#F4AA41"/>
<path d="M17.4685 11.4286C18.1482 10.7489 17.8821 9.38082 16.8741 8.37288C15.8662 7.36494 14.4981 7.09885 13.8184 7.77856C13.1387 8.45827 13.4047 9.82638 14.4127 10.8343C15.4206 11.8423 16.7887 12.1084 17.4685 11.4286Z" fill="#F1B31C"/>
<path d="M17.4685 15.4985C18.1482 14.8188 17.8821 13.4506 16.8741 12.4427C15.8662 11.4348 14.4981 11.1687 13.8184 11.8484C13.1387 12.5281 13.4047 13.8962 14.4127 14.9041C15.4206 15.9121 16.7887 16.1782 17.4685 15.4985Z" fill="#F1B31C"/>
<path d="M17.4685 19.569C18.1482 18.8893 17.8821 17.5212 16.8741 16.5133C15.8662 15.5053 14.4981 15.2392 13.8184 15.9189C13.1387 16.5986 13.4047 17.9668 14.4127 18.9747C15.4206 19.9826 16.7887 20.2487 17.4685 19.569Z" fill="#F1B31C"/>
<path d="M17.4685 23.6396C18.1482 22.9599 17.8821 21.5918 16.8741 20.5838C15.8662 19.5759 14.4981 19.3098 13.8184 19.9895C13.1387 20.6692 13.4047 22.0373 14.4127 23.0453C15.4206 24.0532 16.7887 24.3193 17.4685 23.6396Z" fill="#F1B31C"/>
<path d="M17.4682 27.7096C18.1479 27.0299 17.8818 25.6618 16.8739 24.6539C15.8659 23.6459 14.4978 23.3799 13.8181 24.0596C13.1384 24.7393 13.4045 26.1074 14.4124 27.1153C15.4204 28.1233 16.7885 28.3894 17.4682 27.7096Z" fill="#F1B31C"/>
<path d="M21.5873 10.8341C22.5952 9.82621 22.8613 8.4581 22.1816 7.77839C21.5019 7.09868 20.1338 7.36477 19.1258 8.37271C18.1179 9.38065 17.8518 10.7488 18.5315 11.4285C19.2112 12.1082 20.5793 11.8421 21.5873 10.8341Z" fill="#F1B31C"/>
<path d="M21.5873 14.9042C22.5952 13.8963 22.8613 12.5282 22.1816 11.8485C21.5019 11.1687 20.1338 11.4348 19.1258 12.4428C18.1179 13.4507 17.8518 14.8188 18.5315 15.4985C19.2112 16.1782 20.5793 15.9122 21.5873 14.9042Z" fill="#F1B31C"/>
<path d="M21.5873 18.9748C22.5952 17.9668 22.8613 16.5987 22.1816 15.919C21.5019 15.2393 20.1338 15.5054 19.1258 16.5133C18.1179 17.5213 17.8518 18.8894 18.5315 19.5691C19.2112 20.2488 20.5793 19.9827 21.5873 18.9748Z" fill="#F1B31C"/>
<path d="M21.5873 23.0453C22.5952 22.0374 22.8613 20.6693 22.1816 19.9896C21.5019 19.3099 20.1338 19.5759 19.1258 20.5839C18.1179 21.5918 17.8518 22.9599 18.5315 23.6397C19.2112 24.3194 20.5793 24.0533 21.5873 23.0453Z" fill="#F1B31C"/>
<path d="M21.5868 27.1154C22.5947 26.1075 22.8608 24.7393 22.1811 24.0596C21.5014 23.3799 20.1333 23.646 19.1253 24.654C18.1174 25.6619 17.8513 27.03 18.531 27.7097C19.2107 28.3894 20.5788 28.1233 21.5868 27.1154Z" fill="#F1B31C"/>
<path d="M17.9051 7.662C18.8663 7.662 19.6456 6.50645 19.6456 5.081C19.6456 3.65555 18.8663 2.5 17.9051 2.5C16.9438 2.5 16.1646 3.65555 16.1646 5.081C16.1646 6.50645 16.9438 7.662 17.9051 7.662Z" fill="#F1B31C"/>
<path d="M17.4685 11.4286C18.1482 10.7489 17.8821 9.38082 16.8741 8.37288C15.8662 7.36494 14.4981 7.09885 13.8184 7.77856C13.1387 8.45827 13.4047 9.82638 14.4127 10.8343C15.4206 11.8423 16.7887 12.1084 17.4685 11.4286Z" fill="#F1B31C"/>
<path d="M17.4685 15.4985C18.1482 14.8188 17.8821 13.4506 16.8741 12.4427C15.8662 11.4348 14.4981 11.1687 13.8184 11.8484C13.1387 12.5281 13.4047 13.8962 14.4127 14.9041C15.4206 15.9121 16.7887 16.1782 17.4685 15.4985Z" fill="#F1B31C"/>
<path d="M17.4685 19.569C18.1482 18.8893 17.8821 17.5212 16.8741 16.5133C15.8662 15.5053 14.4981 15.2392 13.8184 15.9189C13.1387 16.5986 13.4047 17.9668 14.4127 18.9747C15.4206 19.9826 16.7887 20.2487 17.4685 19.569Z" fill="#F1B31C"/>
<path d="M17.4685 23.6396C18.1482 22.9599 17.8821 21.5918 16.8741 20.5838C15.8662 19.5759 14.4981 19.3098 13.8184 19.9895C13.1387 20.6692 13.4047 22.0373 14.4127 23.0453C15.4206 24.0532 16.7887 24.3193 17.4685 23.6396Z" fill="#F1B31C"/>
<path d="M17.4682 27.7096C18.1479 27.0299 17.8818 25.6618 16.8739 24.6539C15.8659 23.6459 14.4978 23.3799 13.8181 24.0596C13.1384 24.7393 13.4045 26.1074 14.4124 27.1153C15.4204 28.1233 16.7885 28.3894 17.4682 27.7096Z" fill="#F1B31C"/>
<path d="M21.5873 10.8341C22.5952 9.82621 22.8613 8.4581 22.1816 7.77839C21.5019 7.09868 20.1338 7.36477 19.1258 8.37271C18.1179 9.38065 17.8518 10.7488 18.5315 11.4285C19.2112 12.1082 20.5793 11.8421 21.5873 10.8341Z" fill="#F1B31C"/>
<path d="M21.5873 14.9042C22.5952 13.8963 22.8613 12.5282 22.1816 11.8485C21.5019 11.1687 20.1338 11.4348 19.1258 12.4428C18.1179 13.4507 17.8518 14.8188 18.5315 15.4985C19.2112 16.1782 20.5793 15.9122 21.5873 14.9042Z" fill="#F1B31C"/>
<path d="M21.5873 18.9748C22.5952 17.9668 22.8613 16.5987 22.1816 15.919C21.5019 15.2393 20.1338 15.5054 19.1258 16.5133C18.1179 17.5213 17.8518 18.8894 18.5315 19.5691C19.2112 20.2488 20.5793 19.9827 21.5873 18.9748Z" fill="#F1B31C"/>
<path d="M21.5873 23.0453C22.5952 22.0374 22.8613 20.6693 22.1816 19.9896C21.5019 19.3099 20.1338 19.5759 19.1258 20.5839C18.1179 21.5918 17.8518 22.9599 18.5315 23.6397C19.2112 24.3194 20.5793 24.0533 21.5873 23.0453Z" fill="#F1B31C"/>
<path d="M21.5868 27.1154C22.5947 26.1075 22.8608 24.7393 22.1811 24.0596C21.5014 23.3799 20.1333 23.646 19.1253 24.654C18.1174 25.6619 17.8513 27.03 18.531 27.7097C19.2107 28.3894 20.5788 28.1233 21.5868 27.1154Z" fill="#F4AA41"/>
<path d="M17.9051 7.662C18.8663 7.662 19.6456 6.50645 19.6456 5.081C19.6456 3.65555 18.8663 2.5 17.9051 2.5C16.9438 2.5 16.1646 3.65555 16.1646 5.081C16.1646 6.50645 16.9438 7.662 17.9051 7.662Z" stroke="black" stroke-width="0.5" stroke-miterlimit="10"/>
<path d="M17.4685 11.4286C18.1482 10.7489 17.8821 9.38082 16.8741 8.37288C15.8662 7.36494 14.4981 7.09885 13.8184 7.77856C13.1387 8.45827 13.4047 9.82638 14.4127 10.8343C15.4206 11.8423 16.7887 12.1084 17.4685 11.4286Z" stroke="black" stroke-width="0.5" stroke-miterlimit="10"/>
<path d="M17.4685 15.4985C18.1482 14.8188 17.8821 13.4506 16.8741 12.4427C15.8662 11.4348 14.4981 11.1687 13.8184 11.8484C13.1387 12.5281 13.4047 13.8962 14.4127 14.9041C15.4206 15.9121 16.7887 16.1782 17.4685 15.4985Z" stroke="black" stroke-width="0.5" stroke-miterlimit="10"/>
<path d="M17.4685 19.569C18.1482 18.8893 17.8821 17.5212 16.8741 16.5133C15.8662 15.5053 14.4981 15.2392 13.8184 15.9189C13.1387 16.5986 13.4047 17.9668 14.4127 18.9747C15.4206 19.9826 16.7887 20.2487 17.4685 19.569Z" stroke="black" stroke-width="0.5" stroke-miterlimit="10"/>
<path d="M17.4685 23.6396C18.1482 22.9599 17.8821 21.5918 16.8741 20.5838C15.8662 19.5759 14.4981 19.3098 13.8184 19.9895C13.1387 20.6692 13.4047 22.0373 14.4127 23.0453C15.4206 24.0532 16.7887 24.3193 17.4685 23.6396Z" stroke="black" stroke-width="0.5" stroke-miterlimit="10"/>
<path d="M17.4682 27.7096C18.1479 27.0299 17.8818 25.6618 16.8739 24.6539C15.8659 23.6459 14.4978 23.3799 13.8181 24.0596C13.1384 24.7393 13.4045 26.1074 14.4124 27.1153C15.4204 28.1233 16.7885 28.3894 17.4682 27.7096Z" stroke="black" stroke-width="0.5" stroke-miterlimit="10"/>
<path d="M21.5873 10.8341C22.5952 9.82621 22.8613 8.4581 22.1816 7.77839C21.5019 7.09868 20.1338 7.36477 19.1258 8.37271C18.1179 9.38065 17.8518 10.7488 18.5315 11.4285C19.2112 12.1082 20.5793 11.8421 21.5873 10.8341Z" stroke="black" stroke-width="0.5" stroke-miterlimit="10"/>
<path d="M21.5873 14.9042C22.5952 13.8963 22.8613 12.5282 22.1816 11.8485C21.5019 11.1687 20.1338 11.4348 19.1258 12.4428C18.1179 13.4507 17.8518 14.8188 18.5315 15.4985C19.2112 16.1782 20.5793 15.9122 21.5873 14.9042Z" stroke="black" stroke-width="0.5" stroke-miterlimit="10"/>
<path d="M21.5873 18.9748C22.5952 17.9668 22.8613 16.5987 22.1816 15.919C21.5019 15.2393 20.1338 15.5054 19.1258 16.5133C18.1179 17.5213 17.8518 18.8894 18.5315 19.5691C19.2112 20.2488 20.5793 19.9827 21.5873 18.9748Z" stroke="black" stroke-width="0.5" stroke-miterlimit="10"/>
<path d="M21.5873 23.0453C22.5952 22.0374 22.8613 20.6693 22.1816 19.9896C21.5019 19.3099 20.1338 19.5759 19.1258 20.5839C18.1179 21.5918 17.8518 22.9599 18.5315 23.6397C19.2112 24.3194 20.5793 24.0533 21.5873 23.0453Z" stroke="black" stroke-width="0.5" stroke-miterlimit="10"/>
<path d="M21.5868 27.1154C22.5947 26.1075 22.8608 24.7393 22.1811 24.0596C21.5014 23.3799 20.1333 23.646 19.1253 24.654C18.1174 25.6619 17.8513 27.03 18.531 27.7097C19.2107 28.3894 20.5788 28.1233 21.5868 27.1154Z" stroke="black" stroke-width="0.5" stroke-miterlimit="10"/>
</svg>
