<svg width="36" height="36" viewBox="0 0 36 36" fill="none" xmlns="http://www.w3.org/2000/svg">
<path d="M29.2501 21.7576C29.2501 28.6201 23.5688 34.1382 16.7063 33.7287C9.65371 33.3079 4.82633 26.5253 5.73533 19.4356C6.28546 15.1234 8.30708 11.4256 10.5076 8.5568C10.8901 8.05618 11.2827 12.0848 11.6753 11.6416C12.0691 11.1859 15.7186 4.87018 16.9876 2.65168C17.0422 2.55383 17.1172 2.46886 17.2075 2.40257C17.2978 2.33627 17.4013 2.29019 17.511 2.26746C17.6208 2.24473 17.7341 2.24587 17.8433 2.27082C17.9525 2.29577 18.0551 2.34394 18.1441 2.41205C20.6933 4.3358 29.2501 11.5617 29.2501 21.7576Z" fill="#FF6723"/>
<path d="M25.8752 24.5824C25.8752 29.1296 21.9163 32.7848 17.1013 32.6194C11.9038 32.4439 8.33978 27.6874 9.10253 22.788C10.2039 15.7635 17.4152 11.25 17.4152 11.25C17.4152 11.25 25.8752 16.5454 25.8752 24.5824Z" fill="#FFB02E"/>
</svg>
