<svg width="36" height="36" viewBox="0 0 36 36" fill="none" xmlns="http://www.w3.org/2000/svg">
<g clip-path="url(#clip0_131_2645)">
<path d="M11.9812 8.61176L11.8293 8.77207C11.3339 9.24755 10.86 9.74492 10.409 10.2627C10.3724 10.3021 10.3246 10.3583 10.2796 10.4089C9.12647 11.6408 7.99584 12.8896 6.88491 14.1552C5.34084 15.8624 2.71959 17.6596 2.01647 18.5511C1.29647 19.4652 0.807093 20.4074 0.514593 21.3411C0.461156 21.5099 0.413343 21.6786 0.373968 21.8446C0.357093 21.9064 0.340218 21.9711 0.326155 22.033C0.087093 23.0961 0.146155 24.1283 0.46678 25.0733C0.497718 25.1661 0.52303 25.2589 0.559593 25.3489C0.593343 25.4389 0.638343 25.5261 0.677718 25.6133C1.08272 26.5246 1.74084 27.3205 2.63803 27.9393C2.69147 27.9758 2.74772 28.0096 2.80397 28.0461C2.94741 28.1418 3.09647 28.2318 3.24834 28.3218C4.09772 28.8083 5.09616 29.1683 6.24647 29.3483C7.36584 29.5255 10.7774 29.7393 13.0696 29.9418C14.7458 30.1189 24.5812 29.458 26.4037 28.7436C29.9362 27.3571 32.8583 25.4586 34.2393 22.0386C34.5037 21.3861 34.709 20.7449 34.8749 20.1093C34.9283 19.9011 34.9733 19.693 35.0183 19.4877C35.533 17.0464 35.3137 14.7233 34.349 12.5099C33.553 10.2318 32.1412 8.37832 30.1049 6.93269C29.9333 6.81176 29.759 6.68801 29.5762 6.5727C29.0072 6.20537 28.4143 5.87651 27.8015 5.58832C24.4658 4.01613 20.4468 3.99082 16.9115 5.36894C15.0833 6.08332 13.3846 7.16332 11.9812 8.61176Z" fill="#46681E"/>
<path d="M31.7756 12.5915C31.725 12.5408 31.6716 12.493 31.621 12.4452C31.1609 11.9616 30.6775 11.5008 30.1725 11.0643C30.1331 11.0305 30.0769 10.9827 30.0291 10.9405C28.8338 9.82116 27.6188 8.72147 26.3841 7.64148C24.7247 6.1396 22.4269 3.18366 21.5578 2.50022C20.6663 1.79991 19.7381 1.3246 18.8156 1.03772C18.6469 0.984287 18.481 0.939287 18.3122 0.899912C18.2503 0.883037 18.1856 0.866162 18.1238 0.8521C17.0663 0.618662 16.0341 0.6721 15.0806 0.978662C14.9878 1.0096 14.895 1.0321 14.8022 1.06866C14.7122 1.10241 14.6222 1.1446 14.535 1.18116C13.6125 1.5721 12.7969 2.20772 12.1528 3.07679C12.1135 3.12741 12.0797 3.18366 12.0403 3.2371C11.9391 3.37491 11.8463 3.51835 11.7535 3.66741C11.2444 4.48866 10.8535 5.45616 10.6369 6.56991C10.426 7.65554 10.6903 11.368 10.4203 13.5899C10.1925 15.2127 9.99564 16.8412 9.82408 18.4696C9.81564 18.5343 9.8072 18.6046 9.79876 18.658C9.70225 19.3182 9.63842 19.9828 9.60751 20.6493C9.60189 20.7196 9.59345 20.7899 9.58501 20.863C9.41345 22.8149 9.71439 24.7358 10.3753 26.5049C11.655 29.9333 14.3156 32.7824 17.6935 34.1296C18.3375 34.3855 18.9731 34.588 19.6031 34.7512C19.8113 34.8046 20.0166 34.8496 20.2219 34.8918C22.6491 35.398 24.975 35.1871 27.2166 34.259C29.5172 33.494 31.4128 32.1299 32.9175 30.1584C33.0441 29.9924 33.1706 29.8237 33.2916 29.6465C33.675 29.0972 34.0217 28.5231 34.3294 27.928C36 24.6993 36.1463 20.804 34.8694 17.3755C34.2113 15.6037 33.1819 13.9555 31.7756 12.5915ZM32.6306 27.0477C32.3588 27.5697 32.0544 28.0742 31.7194 28.558C31.6153 28.7099 31.5056 28.8533 31.396 28.9996C30.2006 30.569 28.7522 31.6518 26.9747 32.3155L26.55 32.4646C26.55 32.4646 26.2519 32.5855 26.1338 32.6305C24.3534 33.2943 22.5506 33.4208 20.6156 33.0187C20.4385 32.9821 20.2613 32.9427 20.0841 32.8977C19.4963 32.7458 18.9478 32.5687 18.4078 32.3521C15.6122 31.2383 13.2835 28.8027 12.1725 25.8355C11.5819 24.2549 11.3541 22.6405 11.4947 21.0318L11.5172 20.8096C11.551 20.129 11.61 19.5215 11.6972 18.9337L11.731 18.6721C11.8992 17.0638 12.0952 15.4586 12.3188 13.8571C12.5466 11.998 12.3047 8.03522 12.5185 6.93554C12.6816 6.09741 12.9713 5.33804 13.3819 4.6771C13.4494 4.56741 13.5197 4.46054 13.5956 4.35647L13.666 4.25522C14.1216 3.6421 14.6588 3.21179 15.286 2.9446L15.4069 2.89116L15.5447 2.84054L15.6713 2.80116C16.3181 2.59304 17.0044 2.56491 17.7103 2.72241L17.8397 2.75616C18 2.79272 18.121 2.82929 18.2419 2.86585C18.9844 3.09647 19.7016 3.48179 20.3738 4.00772C21.3638 4.78397 24.3141 8.35023 25.0988 9.06179C26.3194 10.1277 27.5288 11.2218 28.7213 12.3383L28.9238 12.5183C29.371 12.9065 29.8125 13.3284 30.2372 13.7699L30.3863 13.9134C31.6041 15.0918 32.49 16.4643 33.0778 18.0449C34.1803 21.0093 34.0116 24.3758 32.6306 27.0477Z" fill="#AFB42B"/>
<path d="M30.2371 13.7671C29.8153 13.3255 29.3709 12.9037 28.9237 12.5155L28.7212 12.3355C27.5327 11.2225 26.325 10.1301 25.0987 9.05897C24.314 8.35022 21.3665 4.78397 20.3737 4.00491C19.7015 3.47897 18.9843 3.09366 18.2418 2.86303C18.1209 2.82647 18 2.78991 17.8396 2.75335L17.7103 2.7196C17.0043 2.56491 16.3181 2.59022 15.6712 2.79835L15.5446 2.83772L15.4068 2.88835L15.2859 2.94178C14.6587 3.20897 14.1215 3.63647 13.6659 4.25241L13.5956 4.35366C13.5225 4.45772 13.4521 4.5646 13.3818 4.67428C12.9712 5.33522 12.6815 6.0946 12.5184 6.93272C12.3046 8.03241 12.5465 11.9952 12.3187 13.8543C12.0993 15.4152 11.9025 17.0352 11.7309 18.6693L11.6971 18.9308C11.6128 19.5158 11.5537 20.1262 11.5171 20.8068L11.4946 21.029C11.354 22.6377 11.5818 24.2521 12.1725 25.8327C13.2806 28.7999 15.6121 31.2355 18.4078 32.3493C18.9478 32.5658 19.4962 32.743 20.084 32.8949C20.264 32.9399 20.4412 32.9793 20.6156 33.0158C22.5478 33.418 24.3534 33.2915 26.1337 32.6277C26.2518 32.5827 26.55 32.4618 26.55 32.4618L26.9746 32.3127C28.755 31.649 30.2006 30.5633 31.3959 28.9968C31.5056 28.8533 31.6153 28.7071 31.7193 28.5552C32.0681 28.0546 32.3662 27.5596 32.6306 27.0449C34.0143 24.373 34.1803 21.0065 33.0778 18.0365C32.49 16.4558 31.604 15.0862 30.3862 13.9049L30.2371 13.7671Z" fill="#FFF69F"/>
<path d="M28.1645 20.4553C29.2445 23.3522 27.7707 26.5781 24.8739 27.6553C21.977 28.7325 18.751 27.2616 17.6739 24.3647C16.5967 21.4678 18.377 15.9356 20.3289 15.3422C22.337 14.7347 27.0845 17.5584 28.1645 20.4553Z" fill="#855C52"/>
<path d="M23.6082 18.2137C23.4282 18.8437 24.6094 20.039 24.7979 21.8812C24.9413 23.2734 25.6557 23.9034 26.5079 23.729C27.3741 23.5547 27.706 21.8362 26.7413 20.2247C25.8048 18.6553 23.9063 17.1703 23.6082 18.2137Z" fill="#D7CCC8"/>
</g>
<defs>
<clipPath id="clip0_131_2645">
<rect width="36" height="36" fill="white"/>
</clipPath>
</defs>
</svg>
