<svg width="36" height="36" viewBox="0 0 36 36" fill="none" xmlns="http://www.w3.org/2000/svg">
<path d="M7.62179 2.13176C7.53179 2.01926 6.27742 1.12207 6.27742 1.12207C6.27742 1.12207 4.46054 1.52707 4.25804 3.02895C4.05554 4.53082 5.35773 6.2127 5.35773 6.2127L4.03867 5.3577C4.03867 5.3577 1.90398 5.20301 1.65929 6.97488C1.41461 8.74676 3.29617 9.59894 3.78836 9.82113C4.28054 10.0433 5.35773 10.4708 6.8371 11.3005C8.31648 12.1302 9.97585 13.6996 9.97585 13.6096C9.97585 13.5196 12.6449 14.9539 11.5227 12.5774C10.4005 10.2008 7.62179 2.13176 7.62179 2.13176Z" fill="#DFBCA6"/>
<path d="M13.1372 11.6183C13.0472 11.6633 9.99847 12.313 9.99847 12.313C9.99847 12.313 8.94379 11.0361 6.79222 9.71146C4.64066 8.38677 3.34691 8.04364 2.98691 7.01146C2.84629 6.60364 2.82379 5.87802 3.31597 5.54052C4.29472 4.87396 5.47597 6.04958 6.12004 5.45052C6.76972 4.84583 4.59566 1.81677 6.27753 1.12208C7.39691 0.658018 8.3166 1.65927 8.8791 2.69146C9.28691 3.43958 9.27847 4.55333 10.0013 6.12271C10.8985 8.07458 13.0275 10.1361 13.0275 10.1361C13.0275 10.1361 13.1822 11.5958 13.1372 11.6183Z" fill="#FFEBCA"/>
<path d="M12.3835 12.2035L9.9985 12.3132C9.9985 12.3132 9.38256 11.9419 9.10693 12.3807C8.83131 12.8194 9.28131 13.2385 9.28131 13.2385C9.28131 13.2385 10.9688 15.0638 11.4272 15.961C11.8857 16.8554 12.3216 18.1885 12.7801 20.2191C13.2385 22.2469 13.351 24.6966 14.0794 26.4966C14.8079 28.2966 14.8641 28.7804 15.8597 30.2626C16.2704 30.8729 18.4557 33.1313 19.2713 33.6347C20.7141 34.5235 22.7504 34.9482 24.2832 34.9876C25.7822 35.0241 28.5076 34.7063 30.1163 33.6347C31.7251 32.5632 27.6244 23.3269 26.8988 22.1766C26.1704 21.0263 15.7866 14.5885 15.556 14.3972C15.3226 14.2032 12.3835 12.2035 12.3835 12.2035Z" fill="#AC5832"/>
<path d="M9.99854 12.313C9.99854 12.313 10.066 11.0446 10.921 10.2908C11.9195 9.40772 12.5242 9.61584 12.5242 9.61584C12.5242 9.61584 14.4732 11.5143 15.4267 12.119C16.3801 12.7237 17.5895 13.6855 19.5948 14.2565C21.6001 14.8302 27.5288 15.688 30.8279 18.7115C33.2663 20.9474 34.5517 23.5799 34.3295 27.2727C34.1073 30.9655 30.5748 34.0199 28.3473 34.2112C26.1198 34.4024 24.677 33.8821 23.7854 33.6318C22.652 33.314 19.4654 31.0724 18.5429 29.9587C17.6204 28.8449 16.8301 27.0843 16.0342 24.0918C15.2382 21.0993 14.1554 17.758 13.8067 17.1224C13.4579 16.4868 9.99854 12.313 9.99854 12.313Z" fill="#D27856"/>
<path d="M16.7625 17.6767C16.1634 18.2138 17.0775 18.8748 17.5275 19.8001C17.8566 20.4779 18.3263 22.2357 19.2994 21.6704C20.2725 21.1079 19.0434 19.1363 18.5034 18.5485C17.9634 17.9607 17.2491 17.2407 16.7625 17.6767ZM17.7609 24.5392C17.3278 24.8429 17.4797 25.8695 17.7609 26.5613C17.9241 26.9635 18.5034 27.8917 19.0406 27.5598C19.5778 27.2279 19.1953 26.0495 19.0153 25.6642C18.8381 25.2817 18.2728 24.182 17.7609 24.5392ZM20.8856 28.457C20.6409 28.9238 21.1163 29.3007 22.0894 29.9673C22.8178 30.4651 23.805 31.1457 24.2156 30.5045C24.6263 29.8632 23.4759 29.0195 22.7559 28.6595C21.8841 28.2263 21.1416 27.9704 20.8856 28.457Z" fill="#AC5832"/>
</svg>
