<svg width="36" height="37" viewBox="0 0 36 37" fill="none" xmlns="http://www.w3.org/2000/svg">
<g clip-path="url(#clip0_119_986)">
<path d="M7.77668 34.146C11.2259 35.5084 15.8947 36.9253 19.6173 36.5923C25.0432 36.1069 35.6463 33.8772 35.6463 24.547C35.6463 24.4564 35.4297 23.7803 35.3549 23.7538C34.9201 22.6232 34.4054 21.6079 33.6506 20.5453C32.6476 19.1307 31.5918 13.878 32.1993 12.1872C32.2342 12.0921 32.0435 12.0083 31.9586 12.0128C29.7856 12.1607 27.6959 15.4215 27.4473 17.2935C20.2518 9.27622 21.8538 2.63478 22.9361 1.00972C22.9432 1.00301 22.9485 0.994543 22.9513 0.98517C22.9542 0.975797 22.9545 0.965839 22.9524 0.956283C22.9535 0.857283 22.7577 0.758283 22.6582 0.808345C15.7884 2.1246 7.47968 14.535 7.87568 16.3975C6.44187 15.4851 7.37562 10.5688 7.91056 9.18735C7.95443 9.07541 7.69625 8.97078 7.60343 9.03266C6.05543 10.0592 3.60068 13.0152 1.00418 20.7568C-1.59232 28.4985 4.18175 32.7218 7.77668 34.146Z" fill="#DC603A"/>
<path d="M30.9543 22.3897C30.4992 24.138 30.2337 26.096 27.7109 26.6366C23.4589 27.5512 25.6696 21.0392 25.4929 19.4692C25.1943 16.866 22.3643 15.0817 19.4579 14.1052C19.3448 14.067 22.7913 18.6165 17.5094 19.7055C15.8624 20.0458 14.2249 19.1598 13.9887 17.7165C13.879 17.028 14.248 15.0204 14.1124 15.1155C12.8097 16.0183 11.5188 17.0398 11.3708 18.455C11.2758 19.3961 11.7449 20.4153 11.9389 21.335C12.2534 22.8498 11.6695 24.1025 9.44032 24.1172C6.70095 24.1335 7.51826 19.3314 7.5132 19.3432C7.45751 19.2982 -2.85649 28.9901 12.7349 35.7232C17.2743 37.6835 25.0019 36.2379 28.9084 33.7438C33.9709 30.5117 31.2839 21.1173 30.9554 22.3869" fill="#F1EA37"/>
</g>
<defs>
<clipPath id="clip0_119_986">
<rect width="36" height="36" fill="white" transform="translate(0 0.79541)"/>
</clipPath>
</defs>
</svg>
