<svg width="36" height="37" viewBox="0 0 36 37" fill="none" xmlns="http://www.w3.org/2000/svg">
<path d="M33.9805 4.31934C33.9805 4.31934 33.8568 4.09153 33.3364 4.18434C32.7627 4.28559 31.5336 5.21653 31.1427 7.51434C30.7518 9.81215 30.3664 16.9137 30.6336 17.3778C31.1258 18.2412 32.1355 18.9303 32.158 19.4168C32.1749 19.7825 32.0624 28.2368 31.9836 28.8415C31.9049 29.4434 31.4718 31.0887 31.4155 31.5078C31.3621 31.9184 31.6039 32.239 31.8599 32.2615C32.2789 32.3009 33.5389 32.3122 33.5389 32.3122L33.9805 4.31934ZM6.08613 14.5625C6.08613 14.5625 5.95957 8.91215 5.94832 8.64778C5.93707 8.43122 5.80769 8.14153 5.47301 8.17247C5.27894 8.19215 5.21426 8.40309 5.21426 8.60278C5.21426 8.94872 5.17769 13.3081 5.18332 13.6343C5.18894 14.1068 4.65176 14.0028 4.66301 13.6568C4.67426 13.3109 4.65176 8.86997 4.63488 8.56903C4.62082 8.34122 4.50551 8.1809 4.31707 8.1809C4.13144 8.1809 3.97676 8.31309 3.94582 8.55778C3.87551 9.07809 3.89238 13.3728 3.88113 13.6878C3.86707 14.0759 3.40301 14.0618 3.40301 13.6456C3.40301 13.2293 3.39176 8.88965 3.39176 8.54372C3.39176 8.3609 3.33269 8.13872 3.08519 8.14997C2.84613 8.16122 2.77301 8.36372 2.76176 8.51559C2.73926 8.83903 2.57332 13.2884 2.55926 13.5781C2.53113 14.0337 2.06144 14.0506 2.06144 13.5556C2.06144 13.0578 2.17676 8.94028 2.18801 8.59434C2.19644 8.37778 2.11207 8.13028 1.88707 8.14153C1.66207 8.15278 1.53269 8.25965 1.44551 8.60559C1.35551 8.9684 1.25988 11.0722 1.16144 12.2872C1.11082 12.9228 0.812694 15.6284 1.13332 16.34C1.59738 17.3637 2.50582 17.5493 2.50582 17.5493C2.50582 17.5493 2.34551 27.59 2.25551 28.2481C2.12613 29.1987 1.59176 30.5543 1.64801 31.2462C1.67894 31.6287 1.92082 31.8453 2.32019 31.865C2.71957 31.8847 3.51832 31.9887 3.74332 31.9268C3.84176 31.9015 3.88113 25.6859 3.88113 25.6859L3.97957 15.9209L6.08613 14.5625Z" fill="#9C9C9C"/>
<path d="M1.72129 15.1475L6.06941 15.6678C6.06941 15.6678 6.05816 16.4862 5.70098 16.9418C5.25098 17.5128 4.73066 17.5775 4.73066 17.5775C4.73066 17.5775 4.6716 27.964 4.76441 28.6896C4.86004 29.4125 5.47316 31.1871 5.27629 31.5668C5.10191 31.9015 4.67723 31.9859 3.75754 31.955C2.79004 31.924 2.51441 31.9465 2.47785 31.2912C2.44129 30.6359 3.0291 29.4321 3.05723 28.5968C3.08535 27.7615 3.18941 17.1471 3.18941 17.1471C3.18941 17.1471 2.13754 17.0234 1.7466 16.1234C1.44566 15.4203 1.72129 15.1475 1.72129 15.1475ZM33.3057 18.289L31.891 17.9825C31.891 17.9825 32.8416 18.7812 32.8585 19.3971C32.8782 20.0131 32.9119 28.7093 32.8191 29.2325C32.7263 29.7556 31.981 31.7525 32.3213 32.1125C32.5547 32.3571 33.3225 32.3065 33.75 32.3065C34.1775 32.3065 34.5319 32.2868 34.7203 32.0281C34.906 31.7665 34.8216 31.069 34.7232 30.5459C34.6107 29.9384 34.4785 29.39 34.4785 29.1228C34.4785 28.639 34.1607 17.3609 34.1607 17.3609L33.3057 18.289Z" fill="#C8C8C8"/>
<path d="M33.8315 4.26332C33.4405 4.27457 32.5012 4.68801 32.0005 6.50489C31.6096 7.92239 31.5168 9.62395 31.4212 12.6418C31.3058 16.2727 31.4577 17.4146 31.5702 17.5074C31.6827 17.6002 33.4349 18.3286 33.4349 18.3286L34.1605 17.3583C34.1605 17.3583 34.048 5.59645 34.048 5.1127C34.048 4.62895 34.1183 4.25489 33.8315 4.26332ZM1.60021 14.5908C1.60021 14.5908 1.58896 15.4289 1.60021 15.5077C1.61146 15.5864 3.38334 15.7355 4.08084 15.7468C4.77834 15.758 6.0749 15.6764 6.0749 15.6764C6.0749 15.6764 6.0974 15.3952 6.0974 15.0718C6.0974 14.7905 6.08896 14.5571 6.08896 14.5571L1.60021 14.5908Z" fill="#E0E0E0"/>
<path d="M1.99961 16.2977C2.56211 16.4299 3.78555 15.9124 3.60555 15.7099C3.41149 15.4905 1.62274 15.3133 1.60024 15.4821C1.57774 15.648 1.70149 16.2274 1.99961 16.2977ZM4.66024 31.2124C4.80649 30.9424 4.69399 30.1296 4.62649 29.7021C4.55899 29.2746 4.49993 28.9427 4.31711 28.968C4.16524 28.9905 4.16524 29.1593 4.16524 29.5165C4.16524 29.8708 4.19336 30.4474 4.05836 30.5768C3.92336 30.7062 3.43118 30.9818 3.4818 31.249C3.53243 31.5133 3.88118 31.5021 4.13711 31.4908C4.29743 31.4824 4.54211 31.4318 4.66024 31.2124ZM34.0649 30.0508C33.899 30.0396 33.8877 30.3321 33.8877 30.6443C33.8877 30.9537 33.7949 31.1843 33.6571 31.2771C33.5193 31.3699 33.1565 31.564 33.179 31.744C33.2015 31.9212 33.3815 31.9633 33.8934 31.9408C34.4052 31.9183 34.394 31.5555 34.3771 31.1871C34.3602 30.8187 34.3068 30.0677 34.0649 30.0508ZM31.5674 17.4087C31.4296 17.4677 31.8515 17.9908 32.3296 18.4015C32.8246 18.8262 33.0327 18.9583 33.539 18.9302C34.0452 18.9021 34.304 17.5268 33.989 17.4058C33.6712 17.2849 33.5812 17.7883 33.1706 17.8587C32.7627 17.9318 31.8206 17.299 31.5674 17.4087Z" fill="#FDFDFD"/>
<path d="M7.59085 15.0044L28.7043 14.3013C28.7043 14.3013 32.0877 20.4944 27.523 26.7381C23.0652 32.8385 13.6968 32.1353 9.52866 27.1347C4.8571 21.5266 7.59085 15.0044 7.59085 15.0044Z" fill="#D4D4D4"/>
<path d="M17.986 7.51451C11.2472 7.56232 7.21689 12.1861 7.11845 18.2836C7.02002 24.4317 11.7394 30.1326 18.526 30.1326C25.6078 30.1326 29.5903 24.3811 29.6381 18.3314C29.6831 12.9679 24.9666 7.46388 17.986 7.51451Z" fill="#F6F6F6"/>
<path d="M10.3696 18.4689L11.0024 16.6886C11.0024 16.6886 12.7378 11.5249 18.2362 11.553C23.3606 11.5811 25.259 16.4467 25.259 16.4467L25.8412 18.3339L26.1506 17.2708L25.4193 14.7339L22.9443 11.8567L18.7734 10.563L15.2915 11.0524L12.4424 12.8608L10.544 15.7971L10.3696 18.4689Z" fill="#D5D5D5"/>
<path d="M18.1856 26.7997C13.6827 26.7997 10.2206 23.464 9.914 18.7981C9.76775 16.5734 10.5412 14.4444 12.0937 12.8075C13.6715 11.1369 15.8877 10.189 18.1856 10.2144C20.6015 10.2369 22.6771 11.1087 24.1931 12.7344C25.7399 14.3937 26.5443 16.6775 26.4009 18.995C26.1281 23.4219 22.7587 26.7012 18.3881 26.7997C18.3177 26.7969 18.2502 26.7997 18.1856 26.7997ZM18.1096 10.9147C16.0368 10.9147 14.0315 11.7781 12.6027 13.2884C11.1881 14.7847 10.4821 16.7253 10.6143 18.7503C10.8984 23.0956 14.1524 26.1809 18.3684 26.0909C22.3649 26.0037 25.4446 23 25.6949 18.9472C25.8243 16.8519 25.0677 14.7059 23.6756 13.2069C22.2946 11.7247 20.3934 10.9315 18.1771 10.9119C18.1546 10.9147 18.1321 10.9147 18.1096 10.9147Z" fill="white"/>
</svg>
