<svg width="24" height="24" viewBox="0 0 24 24" fill="none" xmlns="http://www.w3.org/2000/svg">
<path d="M6.5 3.75002C5.974 3.75002 5.25 4.38002 5.25 5.57102V18.43C5.25 19.622 5.974 20.251 6.5 20.251H13.496C13.6949 20.251 13.8857 20.33 14.0263 20.4707C14.167 20.6113 14.246 20.8021 14.246 21.001C14.246 21.1999 14.167 21.3907 14.0263 21.5314C13.8857 21.672 13.6949 21.751 13.496 21.751H6.5C4.817 21.751 3.75 20.078 3.75 18.43V5.57002C3.75 3.92202 4.817 2.24902 6.5 2.24902H13.5C13.6989 2.24902 13.8897 2.32804 14.0303 2.46869C14.171 2.60935 14.25 2.80011 14.25 2.99902C14.25 3.19794 14.171 3.3887 14.0303 3.52935C13.8897 3.67001 13.6989 3.74902 13.5 3.74902L6.5 3.75002Z" fill="#FF3B30"/>
<path d="M16.53 7.96983C16.3894 7.82938 16.1988 7.75049 16 7.75049C15.8012 7.75049 15.6106 7.82938 15.47 7.96983V11.2458H9.5C9.30109 11.2458 9.11032 11.3248 8.96967 11.4655C8.82902 11.6062 8.75 11.7969 8.75 11.9958C8.75 12.1947 8.82902 12.3855 8.96967 12.5262C9.11032 12.6668 9.30109 12.7458 9.5 12.7458H15.47V16.0298C15.6106 16.1703 15.8012 16.2492 16 16.2492C16.1988 16.2492 16.3894 16.1703 16.53 16.0298L20.03 12.5298C20.0999 12.46 20.1553 12.3771 20.1931 12.2858C20.2308 12.1945 20.2502 12.0966 20.25 11.9978V11.9958C20.2499 11.8861 20.2258 11.7778 20.1793 11.6785C20.1329 11.5791 20.0652 11.4912 19.981 11.4208L16.53 7.96983Z" fill="#FF3B30"/>
</svg>
