<svg width="500" height="500" viewBox="0 0 500 500" fill="none" xmlns="http://www.w3.org/2000/svg">
<mask id="mask0_179_1124" style="mask-type:luminance" maskUnits="userSpaceOnUse" x="246" y="145" width="16" height="41">
<path d="M246.667 145.562H261.333V185.333H246.667V145.562Z" fill="white"/>
</mask>
<g mask="url(#mask0_179_1124)">
<path d="M259.729 151.453C259.656 151.526 259.547 151.635 259.438 151.708L259.401 151.745C258.406 152.516 257.484 153.401 256.641 154.396C255.828 155.427 255.094 156.531 254.469 157.708C253.255 160.099 252.443 162.823 251.969 165.656C251.49 168.49 251.375 171.432 251.49 174.375C251.599 177.323 251.969 180.302 252.552 183.172V183.208C252.594 183.427 252.594 183.651 252.479 183.833C252.333 184.13 252.078 184.385 251.708 184.458C251.156 184.568 250.641 184.276 250.495 183.76C249.464 180.781 248.766 177.76 248.25 174.672C247.771 171.578 247.516 168.417 247.662 165.214C247.771 162.01 248.323 158.74 249.5 155.573C250.089 153.99 250.865 152.443 251.781 150.974C252.74 149.5 253.844 148.141 255.13 146.891C256.38 145.635 258.406 145.672 259.656 146.891C261.016 148.177 261.016 150.203 259.729 151.453Z" fill="#28C5BF"/>
</g>
<mask id="mask1_179_1124" style="mask-type:luminance" maskUnits="userSpaceOnUse" x="192" y="165" width="116" height="154">
<path d="M192.021 165.333H307.984V318.557H192.021V165.333Z" fill="white"/>
</mask>
<g mask="url(#mask1_179_1124)">
<path d="M307.755 276.568C306.979 287.682 300.135 298.646 289.057 306.63C278.573 314.177 265.104 318.516 252 318.557H251.781C245.416 318.516 238.937 317.563 232.682 315.682C225.031 313.401 217.708 309.833 211.338 305.198C199.161 296.182 192.094 284.37 192.021 272.703C191.911 255.63 196.656 246.906 201.255 238.443C204.682 232.151 208.213 225.641 210.385 214.417C212.849 201.755 217.302 190.162 222.932 181.771C227.015 175.703 231.286 171.802 235.406 169.297C240.411 166.281 245.193 165.432 248.984 165.396C269.63 165.396 284.568 183.026 290.015 213.714C291.635 222.88 294.875 229.135 298.333 235.76C303.63 246.063 309.187 256.734 307.755 276.568Z" fill="white"/>
</g>
<path d="M300.432 276.052C299.068 294.896 276.141 311.156 252 311.198H251.781C225.323 311.12 199.453 292.208 199.307 272.667C199.125 245.286 212.188 243.521 217.521 215.812C221.901 193.292 233.234 172.719 248.948 172.755C273.495 172.755 280.703 203.745 282.693 215.042C287.219 240.099 302.599 245.911 300.432 276.052Z" fill="#28C5BF"/>
<path d="M273.677 271.708C273.677 284.443 261.865 291.875 251.562 292.063C251.417 292.063 251.302 292.063 251.156 292.063C240.745 292.063 227.901 284.109 227.901 271.193C227.865 258.276 235.885 242.271 251.562 242.234C252.812 242.234 253.99 242.38 255.167 242.641C266.391 245.286 273.677 260.005 273.677 271.708Z" fill="#28C5BF"/>
<path d="M275.297 220.229C272.313 220.229 269.885 222.656 269.885 225.641C269.885 228.62 272.313 231.047 275.297 231.047C278.276 231.047 280.703 228.62 280.703 225.641C280.703 222.656 278.276 220.229 275.297 220.229ZM235.036 225.714C235.036 228.693 232.609 231.12 229.63 231.12C226.651 231.12 224.219 228.693 224.219 225.714C224.219 222.729 226.651 220.302 229.63 220.302C232.609 220.302 235.036 222.693 235.036 225.714Z" fill="#C8FDFF"/>
<path d="M256.677 224.13C256.677 224.13 256.271 227.479 255.167 230.349C254.323 232.557 253.073 234.469 251.266 234.469C249.609 234.469 248.396 232.849 247.552 230.901C246.26 227.922 245.786 224.13 245.786 224.13H256.677Z" fill="white"/>
<path d="M255.167 230.385C254.323 232.594 253.073 234.505 251.266 234.505C249.609 234.505 248.396 232.885 247.552 230.937C249.094 229.318 251.672 227.953 255.167 230.385Z" fill="#C8FDFF"/>
<path d="M272.755 215.26C273.271 215.187 273.641 214.672 273.568 214.12C273.271 212.464 271.802 209.411 268.193 209.667C264.698 209.891 263.297 212.682 263.042 214.12C262.932 214.635 263.297 215.151 263.818 215.26C264.328 215.37 264.844 215 264.953 214.49C264.995 214.229 265.547 211.802 268.344 211.62C271.026 211.432 271.615 214.156 271.656 214.453C271.729 214.927 272.13 215.26 272.609 215.26C272.646 215.26 272.719 215.26 272.755 215.26ZM239.38 215.333C238.901 215.333 238.5 215 238.422 214.526C238.349 214.229 237.797 211.505 235.115 211.693C232.312 211.875 231.802 214.266 231.729 214.562C231.615 215.078 231.099 215.443 230.583 215.333C230.073 215.224 229.703 214.745 229.812 214.193C230.073 212.76 231.469 209.964 234.964 209.74C238.536 209.484 240.042 212.536 240.339 214.193C240.448 214.708 240.078 215.224 239.526 215.333C239.49 215.333 239.417 215.333 239.38 215.333Z" fill="white"/>
<mask id="mask2_179_1124" style="mask-type:luminance" maskUnits="userSpaceOnUse" x="249" y="125" width="33" height="33">
<path d="M249.333 125.333H281.333V157.333H249.333V125.333Z" fill="white"/>
</mask>
<g mask="url(#mask2_179_1124)">
<mask id="mask3_179_1124" style="mask-type:luminance" maskUnits="userSpaceOnUse" x="238" y="114" width="55" height="55">
<path d="M273.344 114.578L292.432 133.667L257.786 168.318L238.693 149.224L273.344 114.578Z" fill="white"/>
</mask>
<g mask="url(#mask3_179_1124)">
<mask id="mask4_179_1124" style="mask-type:luminance" maskUnits="userSpaceOnUse" x="238" y="114" width="55" height="55">
<path d="M273.344 114.578L292.432 133.667L257.786 168.318L238.693 149.224L273.344 114.578Z" fill="white"/>
</mask>
<g mask="url(#mask4_179_1124)">
<path d="M273.448 149.318C264.797 157.964 249.901 157.089 249.901 157.089C249.901 157.089 248.838 142.005 257.489 133.359C266.135 124.714 281.219 125.771 281.219 125.771C281.219 125.771 282.094 140.672 273.448 149.318Z" fill="white"/>
</g>
</g>
</g>
<mask id="mask5_179_1124" style="mask-type:luminance" maskUnits="userSpaceOnUse" x="220" y="241" width="60" height="60">
<path d="M220.531 241.099H279.469V300.037H220.531V241.099Z" fill="white"/>
</mask>
<g mask="url(#mask5_179_1124)">
<mask id="mask6_179_1124" style="mask-type:luminance" maskUnits="userSpaceOnUse" x="220" y="241" width="60" height="60">
<path d="M250 300.037C266.271 300.037 279.469 286.844 279.469 270.568C279.469 254.292 266.271 241.099 250 241.099C233.724 241.099 220.531 254.292 220.531 270.568C220.531 286.844 233.724 300.037 250 300.037Z" fill="white"/>
</mask>
<g mask="url(#mask6_179_1124)">
<path d="M250 300.036C266.271 300.036 279.469 286.844 279.469 270.568C279.469 254.292 266.271 241.099 250 241.099C233.724 241.099 220.531 254.292 220.531 270.568C220.531 286.844 233.724 300.036 250 300.036Z" stroke="white" stroke-width="18"/>
</g>
</g>
<path d="M225.026 271.604V245.594" stroke="white" stroke-width="9" stroke-linecap="round"/>
<path d="M174.928 365.033H161.783C160.949 365.033 160.225 364.736 159.616 364.137C159.001 363.553 158.699 362.814 158.699 361.908V331.908C158.725 331.074 159.033 330.366 159.616 329.783C160.199 329.199 160.918 328.908 161.783 328.908H174.762C176.147 328.908 177.475 329.178 178.741 329.72C180.001 330.262 181.116 331.022 182.074 331.991C183.001 332.939 183.73 334.095 184.262 335.47C184.803 336.835 185.074 338.231 185.074 339.658C185.074 341.007 184.829 342.277 184.345 343.47C183.871 344.652 183.184 345.715 182.283 346.658C183.335 347.673 184.147 348.835 184.72 350.137C185.288 351.428 185.574 352.84 185.574 354.366C185.574 355.798 185.293 357.168 184.741 358.47C184.184 359.777 183.413 360.923 182.428 361.908C181.439 362.897 180.293 363.668 178.991 364.22C177.699 364.762 176.345 365.033 174.928 365.033ZM164.97 343.658H174.928C175.454 343.632 175.96 343.512 176.449 343.303C176.949 343.085 177.376 342.793 177.741 342.428C178.491 341.678 178.866 340.757 178.866 339.658C178.866 339.007 178.741 338.366 178.491 337.741C178.251 337.106 177.934 336.611 177.533 336.262C176.684 335.527 175.616 335.158 174.324 335.158H164.97V343.658ZM164.97 358.762H174.928C176.095 358.762 177.085 358.324 177.908 357.449C178.293 357.048 178.595 356.585 178.803 356.053C179.022 355.512 179.137 354.949 179.137 354.366C179.137 353.783 179.022 353.22 178.803 352.678C178.595 352.137 178.293 351.658 177.908 351.241C177.074 350.34 176.079 349.887 174.928 349.887H164.97V358.762Z" fill="white"/>
<path d="M201.358 365.324C199.551 365.324 197.821 364.986 196.17 364.303C194.53 363.611 193.092 362.652 191.858 361.428C190.618 360.21 189.655 358.783 188.962 357.158C188.264 355.533 187.92 353.819 187.92 352.012C187.92 350.178 188.264 348.449 188.962 346.824C189.655 345.189 190.618 343.757 191.858 342.533C193.092 341.314 194.53 340.356 196.17 339.658C197.821 338.965 199.551 338.616 201.358 338.616C203.15 338.616 204.858 338.96 206.483 339.637C208.108 340.303 209.535 341.251 210.775 342.47C211.993 343.678 212.962 345.095 213.67 346.72C214.389 348.345 214.764 350.053 214.795 351.845C214.795 352.72 214.514 353.423 213.962 353.949C213.405 354.481 212.691 354.741 211.816 354.741H194.712C195.181 356.132 196.03 357.272 197.254 358.158C198.431 359.064 199.801 359.512 201.358 359.512C202.16 359.512 202.827 359.444 203.358 359.303C203.884 359.168 204.389 358.949 204.879 358.658C205.545 358.272 206.139 358.074 206.67 358.074C207.488 358.074 208.196 358.397 208.795 359.033C209.363 359.658 209.65 360.387 209.65 361.22C209.65 361.835 209.446 362.397 209.045 362.908C208.639 363.408 208.077 363.845 207.358 364.22C206.618 364.585 205.738 364.856 204.712 365.033C203.681 365.225 202.566 365.324 201.358 365.324ZM194.504 349.658H208.566C208.118 348.116 207.259 346.856 205.983 345.866C204.691 344.908 203.181 344.428 201.462 344.428C199.764 344.428 198.28 344.928 197.004 345.928C196.405 346.387 195.889 346.944 195.462 347.595C195.03 348.236 194.712 348.923 194.504 349.658Z" fill="white"/>
<path d="M230.546 365.366C228.713 365.366 226.983 365.033 225.358 364.366C223.733 363.689 222.306 362.731 221.088 361.491C219.838 360.272 218.869 358.856 218.192 357.241C217.509 355.632 217.171 353.908 217.171 352.074V333.741C217.171 332.856 217.483 332.126 218.108 331.553C218.702 330.96 219.41 330.658 220.233 330.658C221.077 330.658 221.822 330.949 222.463 331.533C223.098 332.173 223.421 332.908 223.421 333.741V338.158H233.025C233.858 338.158 234.577 338.46 235.192 339.053C235.785 339.652 236.088 340.376 236.088 341.22C236.088 341.595 236.004 341.965 235.838 342.324C235.671 342.689 235.452 343.001 235.192 343.262C234.593 343.845 233.869 344.137 233.025 344.137H223.421V352.137C223.421 353.126 223.593 354.053 223.942 354.928C224.301 355.793 224.806 356.548 225.463 357.199C226.806 358.59 228.504 359.283 230.546 359.283C232.364 359.283 233.91 358.751 235.192 357.678C235.608 357.303 235.983 357.043 236.317 356.887C236.65 356.72 237.035 356.637 237.483 356.637C238.192 356.637 238.822 356.908 239.379 357.449C239.931 358.033 240.213 358.731 240.213 359.533C240.213 360.548 239.848 361.397 239.129 362.074C237.973 363.173 236.671 364.001 235.213 364.553C233.765 365.095 232.213 365.366 230.546 365.366Z" fill="white"/>
<path d="M255.393 365.366C253.56 365.366 251.831 365.033 250.206 364.366C248.581 363.689 247.153 362.731 245.935 361.491C244.685 360.272 243.716 358.856 243.039 357.241C242.357 355.632 242.018 353.908 242.018 352.074V333.741C242.018 332.856 242.331 332.126 242.956 331.553C243.549 330.96 244.258 330.658 245.081 330.658C245.924 330.658 246.669 330.949 247.31 331.533C247.945 332.173 248.268 332.908 248.268 333.741V338.158H257.872C258.706 338.158 259.424 338.46 260.039 339.053C260.633 339.652 260.935 340.376 260.935 341.22C260.935 341.595 260.851 341.965 260.685 342.324C260.518 342.689 260.299 343.001 260.039 343.262C259.44 343.845 258.716 344.137 257.872 344.137H248.268V352.137C248.268 353.126 248.44 354.053 248.789 354.928C249.148 355.793 249.653 356.548 250.31 357.199C251.653 358.59 253.351 359.283 255.393 359.283C257.211 359.283 258.758 358.751 260.039 357.678C260.456 357.303 260.831 357.043 261.164 356.887C261.497 356.72 261.883 356.637 262.331 356.637C263.039 356.637 263.669 356.908 264.226 357.449C264.778 358.033 265.06 358.731 265.06 359.533C265.06 360.548 264.695 361.397 263.976 362.074C262.82 363.173 261.518 364.001 260.06 364.553C258.612 365.095 257.06 365.366 255.393 365.366Z" fill="white"/>
<path d="M279.073 365.324C277.266 365.324 275.537 364.986 273.886 364.303C272.245 363.611 270.808 362.652 269.573 361.428C268.334 360.21 267.37 358.783 266.678 357.158C265.98 355.533 265.636 353.819 265.636 352.012C265.636 350.178 265.98 348.449 266.678 346.824C267.37 345.189 268.334 343.757 269.573 342.533C270.808 341.314 272.245 340.356 273.886 339.658C275.537 338.965 277.266 338.616 279.073 338.616C280.865 338.616 282.573 338.96 284.198 339.637C285.823 340.303 287.251 341.251 288.49 342.47C289.709 343.678 290.678 345.095 291.386 346.72C292.105 348.345 292.48 350.053 292.511 351.845C292.511 352.72 292.23 353.423 291.678 353.949C291.12 354.481 290.407 354.741 289.532 354.741H272.428C272.896 356.132 273.745 357.272 274.969 358.158C276.146 359.064 277.516 359.512 279.073 359.512C279.876 359.512 280.542 359.444 281.073 359.303C281.6 359.168 282.105 358.949 282.594 358.658C283.261 358.272 283.855 358.074 284.386 358.074C285.204 358.074 285.912 358.397 286.511 359.033C287.079 359.658 287.365 360.387 287.365 361.22C287.365 361.835 287.162 362.397 286.761 362.908C286.355 363.408 285.792 363.845 285.073 364.22C284.334 364.585 283.454 364.856 282.428 365.033C281.396 365.225 280.282 365.324 279.073 365.324ZM272.219 349.658H286.282C285.834 348.116 284.975 346.856 283.698 345.866C282.407 344.908 280.896 344.428 279.178 344.428C277.48 344.428 275.995 344.928 274.719 345.928C274.12 346.387 273.605 346.944 273.178 347.595C272.745 348.236 272.428 348.923 272.219 349.658Z" fill="white"/>
<path d="M298.012 365.033C297.189 365.033 296.46 364.741 295.824 364.158C295.199 363.59 294.887 362.876 294.887 362.012V352.637C294.887 350.751 295.246 348.949 295.97 347.241C296.704 345.522 297.72 344.012 299.012 342.72C300.314 341.428 301.814 340.423 303.512 339.699C305.204 338.981 306.991 338.616 308.866 338.616H308.928C309.913 338.616 310.684 338.897 311.241 339.449C311.793 340.007 312.074 340.736 312.074 341.637C312.074 342.053 311.991 342.449 311.824 342.824C311.658 343.199 311.439 343.522 311.178 343.783C310.538 344.366 309.788 344.658 308.928 344.658H308.783C307.767 344.689 306.788 344.902 305.845 345.303C304.913 345.71 304.079 346.262 303.345 346.97C302.605 347.694 302.033 348.522 301.616 349.449C301.199 350.382 300.98 351.382 300.97 352.449V362.012C300.97 362.861 300.684 363.574 300.116 364.158C299.533 364.741 298.829 365.033 298.012 365.033Z" fill="white"/>
<path d="M327.856 365.324C325.841 365.324 324.023 364.981 322.398 364.283C320.773 363.574 319.388 362.574 318.252 361.283C317.138 360.048 316.294 358.59 315.711 356.908C315.138 355.215 314.856 353.382 314.856 351.408V332.012C314.856 331.126 315.169 330.397 315.794 329.824C316.377 329.241 317.106 328.949 317.981 328.949C318.815 328.949 319.549 329.241 320.19 329.824C320.815 330.397 321.127 331.126 321.127 332.012V350.991C321.127 353.658 321.721 355.678 322.919 357.053C324.112 358.418 325.804 359.095 328.002 359.095C330.112 359.095 331.804 358.345 333.086 356.845C334.336 355.387 334.961 353.402 334.961 350.887V332.012C334.961 331.126 335.263 330.397 335.877 329.824C336.513 329.241 337.263 328.949 338.127 328.949C338.971 328.949 339.716 329.241 340.356 329.824C340.95 330.439 341.252 331.168 341.252 332.012V350.928C341.252 353.053 340.945 355.001 340.336 356.762C339.721 358.512 338.841 360.027 337.69 361.303C336.523 362.611 335.106 363.611 333.44 364.303C331.773 364.986 329.909 365.324 327.856 365.324Z" fill="white"/>
</svg>
