<svg width="32" height="31" viewBox="0 0 32 31" fill="none" xmlns="http://www.w3.org/2000/svg">
<path d="M18.3334 6.45831V7.74998H22.5959L17.0417 13.3041C15.7501 12.2708 14.2001 11.625 12.5209 11.625C8.64591 11.625 5.41675 14.8541 5.41675 18.7291C5.41675 22.6041 8.64591 25.8333 12.5209 25.8333C16.3959 25.8333 19.6251 22.6041 19.6251 18.7291C19.6251 17.05 18.9792 15.5 17.9459 14.2083L23.5001 8.65415V12.9166H24.7917V6.45831H18.3334ZM12.5209 12.9166C13.8126 12.9166 15.1042 13.4333 16.1376 14.2083C16.3959 14.4666 16.7834 14.725 17.0417 15.1125C17.8167 16.1458 18.3334 17.4375 18.3334 18.7291C18.3334 21.9583 15.7501 24.5416 12.5209 24.5416C9.29175 24.5416 6.70841 21.9583 6.70841 18.7291C6.70841 15.5 9.29175 12.9166 12.5209 12.9166Z" fill="white"/>
</svg>
