<svg width="25" height="24" viewBox="0 0 25 24" fill="none" xmlns="http://www.w3.org/2000/svg">
<path d="M12.125 12C13.5174 12 14.8527 11.4469 15.8373 10.4623C16.8219 9.47774 17.375 8.14239 17.375 6.75C17.375 5.35761 16.8219 4.02226 15.8373 3.03769C14.8527 2.05312 13.5174 1.5 12.125 1.5C10.7326 1.5 9.39726 2.05312 8.41269 3.03769C7.42812 4.02226 6.875 5.35761 6.875 6.75C6.875 8.14239 7.42812 9.47774 8.41269 10.4623C9.39726 11.4469 10.7326 12 12.125 12ZM5.75 13.5C5.05381 13.5 4.38613 13.7766 3.89384 14.2688C3.40156 14.7611 3.125 15.4288 3.125 16.125V16.5C3.125 18.2948 4.26725 19.8127 5.88875 20.8447C7.51925 21.8827 9.7265 22.5 12.125 22.5C14.5235 22.5 16.73 21.8827 18.3612 20.8447C19.9827 19.8127 21.125 18.2948 21.125 16.5V16.125C21.125 15.4288 20.8484 14.7611 20.3562 14.2688C19.8639 13.7766 19.1962 13.5 18.5 13.5H5.75Z" fill="#94A3B8"/>
</svg>
