<svg width="64" height="62" viewBox="0 0 64 62" fill="none" xmlns="http://www.w3.org/2000/svg">
<rect x="0.5" width="63" height="62" rx="31" fill="#28C5BF"/>
<path d="M19.9195 16C19.0457 16 18.2077 16.3387 17.5899 16.9415C16.972 17.5443 16.6249 18.3618 16.6249 19.2143V23.5C16.6249 23.7842 16.5092 24.0567 16.3032 24.2576C16.0973 24.4586 15.8179 24.5715 15.5267 24.5715C15.2354 24.5715 14.9561 24.4586 14.7501 24.2576C14.5442 24.0567 14.4285 23.7842 14.4285 23.5V19.2143C14.4285 17.7935 15.007 16.4309 16.0368 15.4262C17.0665 14.4216 18.4632 13.8572 19.9195 13.8572H24.3124C24.6037 13.8572 24.883 13.9701 25.089 14.171C25.2949 14.3719 25.4106 14.6444 25.4106 14.9286C25.4106 15.2128 25.2949 15.4853 25.089 15.6862C24.883 15.8872 24.6037 16 24.3124 16H19.9195ZM19.9195 46C19.0457 46 18.2077 45.6614 17.5899 45.0586C16.972 44.4558 16.6249 43.6382 16.6249 42.7857V38.5C16.6249 38.2159 16.5092 37.9433 16.3032 37.7424C16.0973 37.5415 15.8179 37.4286 15.5267 37.4286C15.2354 37.4286 14.9561 37.5415 14.7501 37.7424C14.5442 37.9433 14.4285 38.2159 14.4285 38.5V42.7857C14.4285 44.2066 15.007 45.5692 16.0368 46.5738C17.0665 47.5785 18.4632 48.1429 19.9195 48.1429H24.3124C24.6037 48.1429 24.883 48.03 25.089 47.8291C25.2949 47.6281 25.4106 47.3556 25.4106 47.0715C25.4106 46.7873 25.2949 46.5148 25.089 46.3138C24.883 46.1129 24.6037 46 24.3124 46H19.9195ZM47.3749 19.2143C47.3749 18.3618 47.0278 17.5443 46.4099 16.9415C45.7921 16.3387 44.954 16 44.0803 16H39.6874C39.3961 16 39.1168 15.8872 38.9108 15.6862C38.7049 15.4853 38.5892 15.2128 38.5892 14.9286C38.5892 14.6444 38.7049 14.3719 38.9108 14.171C39.1168 13.9701 39.3961 13.8572 39.6874 13.8572H44.0803C45.5366 13.8572 46.9333 14.4216 47.963 15.4262C48.9928 16.4309 49.5713 17.7935 49.5713 19.2143V23.5C49.5713 23.7842 49.4556 24.0567 49.2497 24.2576C49.0437 24.4586 48.7644 24.5715 48.4731 24.5715C48.1818 24.5715 47.9025 24.4586 47.6966 24.2576C47.4906 24.0567 47.3749 23.7842 47.3749 23.5V19.2143ZM44.0803 46C44.954 46 45.7921 45.6614 46.4099 45.0586C47.0278 44.4558 47.3749 43.6382 47.3749 42.7857V38.5C47.3749 38.2159 47.4906 37.9433 47.6966 37.7424C47.9025 37.5415 48.1818 37.4286 48.4731 37.4286C48.7644 37.4286 49.0437 37.5415 49.2497 37.7424C49.4556 37.9433 49.5713 38.2159 49.5713 38.5V42.7857C49.5713 44.2066 48.9928 45.5692 47.963 46.5738C46.9333 47.5785 45.5366 48.1429 44.0803 48.1429H39.6874C39.3961 48.1429 39.1168 48.03 38.9108 47.8291C38.7049 47.6281 38.5892 47.3556 38.5892 47.0715C38.5892 46.7873 38.7049 46.5148 38.9108 46.3138C39.1168 46.1129 39.3961 46 39.6874 46H44.0803ZM35.4161 31.1286C35.4161 32.9943 33.8874 34.5057 31.9999 34.5057C30.1124 34.5057 28.5837 32.9943 28.5837 31.13C28.5837 29.2657 30.111 27.7529 31.9999 27.7529C33.8888 27.7529 35.4161 29.2643 35.4161 31.1286ZM27.3479 22.4015C27.7813 21.5443 28.6686 21.0015 29.6395 21.0015H34.3603C35.3311 21.0015 36.22 21.5443 36.6519 22.4015L37.652 24.3786H38.8337C40.7197 24.3786 42.2499 25.89 42.2499 27.7543V36.1972C42.2499 38.0586 40.7197 39.5715 38.8337 39.5715H25.1661C23.2801 39.5715 21.7499 38.06 21.7499 36.1943V27.7529C21.7499 25.8886 23.2801 24.3772 25.1661 24.3772H26.3463L27.3479 22.4015ZM37.1249 31.13C37.1249 28.3343 34.8304 26.0672 31.9999 26.0672C29.1694 26.0672 26.8749 28.3343 26.8749 31.1315C26.8749 33.9286 29.1694 36.1957 31.9999 36.1957C34.8304 36.1957 37.1249 33.9286 37.1249 31.1315" fill="white"/>
</svg>
