<svg width="38" height="39" viewBox="0 0 38 39" fill="none" xmlns="http://www.w3.org/2000/svg">
<path d="M13.623 37.0399L12.2535 36.2284L17.0035 27.7893L14.372 26.2296L11.7531 30.8225L10.3835 30.011L18.506 15.6304C17.5033 14.7832 16.7565 13.9068 16.2656 13.0012C15.7748 12.0967 15.5294 11.0835 15.5294 9.96151C15.5294 9.13383 15.6328 8.31263 15.8397 7.49793C16.0466 6.68322 16.3833 5.77764 16.8499 4.78116L18.202 5.59262C17.8326 6.3608 17.5587 7.09653 17.3803 7.79979C17.2019 8.50305 17.1122 9.17602 17.1111 9.8187C17.1111 10.919 17.3887 11.8955 17.944 12.7481C18.4992 13.6006 19.379 14.3948 20.5834 15.1305L23.872 17.1153C25.1428 17.8813 26.0849 18.8443 26.6982 20.0041C27.3104 21.164 27.6165 22.2924 27.6165 23.3895C27.6165 24.188 27.5099 25.0011 27.2967 25.8288C27.0835 26.6575 26.7088 27.5983 26.1725 28.651L24.803 27.8396C25.2336 27.0032 25.5434 26.2469 25.7324 25.5707C25.9213 24.8945 26.0158 24.194 26.0158 23.4691C26.0158 22.729 25.8511 21.9949 25.5218 21.2668C25.1935 20.5386 24.613 19.8229 23.7801 19.1196L13.623 37.0399ZM24.3295 14.7946C23.5801 14.7946 22.9462 14.5284 22.428 13.9961C21.9086 13.4649 21.649 12.8151 21.649 12.047C21.649 11.2788 21.9086 10.6291 22.428 10.0978C22.9473 9.56661 23.5806 9.30099 24.328 9.30099C25.0753 9.30099 25.7092 9.56661 26.2295 10.0978C26.7489 10.6291 27.0085 11.2788 27.0085 12.047C27.0085 12.8151 26.7489 13.4649 26.2295 13.9961C25.7102 14.5273 25.0769 14.7935 24.3295 14.7946ZM21.223 7.61478C20.6383 7.61478 20.1469 7.40813 19.749 6.99482C19.351 6.58044 19.152 6.08004 19.152 5.49362C19.152 4.89423 19.3542 4.39058 19.7585 3.98269C20.1627 3.5748 20.6509 3.37085 21.223 3.37085C21.8078 3.37085 22.2987 3.57804 22.6955 3.99243C23.0945 4.40573 23.294 4.90613 23.294 5.49362C23.294 6.09302 23.0866 6.59613 22.6718 7.00294C22.258 7.41083 21.7751 7.61478 21.223 7.61478Z" fill="#28C5BF"/>
</svg>
