<svg width="25" height="24" viewBox="0 0 25 24" fill="none" xmlns="http://www.w3.org/2000/svg">
<path d="M18.375 7.5C19.038 7.5 19.6739 7.23661 20.1428 6.76777C20.6116 6.29893 20.875 5.66304 20.875 5C20.875 4.33696 20.6116 3.70107 20.1428 3.23223C19.6739 2.76339 19.038 2.5 18.375 2.5C17.712 2.5 17.0761 2.76339 16.6072 3.23223C16.1384 3.70107 15.875 4.33696 15.875 5C15.875 5.66304 16.1384 6.29893 16.6072 6.76777C17.0761 7.23661 17.712 7.5 18.375 7.5Z" fill="#28C5BF" stroke="#28C5BF" stroke-width="2"/>
<path d="M6.37495 8.38502L10.3765 6.99902L15.875 9.62352L10.3765 13.722L15.875 17.342L12.379 21.999M18.035 10.8215L19.376 11.551L22.375 8.73302M8.79945 15.7725L7.31445 17.7285L2.37695 20.4985" stroke="#28C5BF" stroke-width="2" stroke-linecap="round" stroke-linejoin="round"/>
</svg>
