<svg width="26" height="26" viewBox="0 0 26 26" fill="none" xmlns="http://www.w3.org/2000/svg">
<path d="M18.9517 12.1875C18.9923 12.2485 19.0939 12.2078 19.0939 12.1469C19.2158 11.05 19.5408 8.02346 21.6939 7.37346C22.3845 7.17033 23.0752 7.65783 23.1564 8.28752C23.2986 9.30315 22.1408 11.9235 22.2423 14.3203C22.2627 14.7063 22.9127 18.7891 21.1861 21.2063C19.4595 23.6235 15.3564 26.0813 11.2736 22.3438C9.1611 20.4141 9.1611 19.6422 6.54079 16.9406C6.01266 16.4125 3.90016 14.0969 3.33141 13.386C2.57985 12.4313 3.77829 11.1719 4.69235 11.8219C5.11891 12.1266 8.89704 15.2953 9.03922 15.4375C9.3236 15.6813 9.66891 15.336 9.46579 15.0922C7.15016 12.0453 4.91579 9.30315 4.30641 8.2469C3.69704 7.19065 5.15954 6.05315 6.01266 6.96721C6.60172 7.57658 10.9689 12.675 11.172 12.8985C11.3752 13.1219 11.7205 12.8375 11.5986 12.5531C11.4564 12.2891 7.92204 6.1344 7.29235 4.73283C6.74391 3.49377 8.57204 2.33596 9.42516 3.61565C10.1158 4.63127 13.9752 11.05 14.1173 11.2735C14.3002 11.5985 14.7064 11.3953 14.5439 11.0297C14.422 10.7656 12.0455 4.26565 11.8627 3.59533C11.5377 2.41721 13.2236 1.44221 14.0158 2.78283C15.0923 4.63127 17.2252 10.2781 18.9517 12.1875Z" fill="#FFCA28"/>
<mask id="mask0_57_1496" style="mask-type:luminance" maskUnits="userSpaceOnUse" x="3" y="2" width="21" height="23">
<path d="M18.9517 12.1875C18.9923 12.2485 19.0939 12.2078 19.0939 12.1469C19.2158 11.05 19.5408 8.02346 21.6939 7.37346C22.3845 7.17033 23.0752 7.65783 23.1564 8.28752C23.2986 9.30315 22.1408 11.9235 22.2423 14.3203C22.2627 14.7063 22.9127 18.7891 21.1861 21.2063C19.4595 23.6235 15.3564 26.0813 11.2736 22.3438C9.1611 20.4141 9.1611 19.6422 6.54079 16.9406C6.01266 16.4125 3.90016 14.0969 3.33141 13.386C2.57985 12.4313 3.77829 11.1719 4.69235 11.8219C5.11891 12.1266 8.89704 15.2953 9.03922 15.4375C9.3236 15.6813 9.66891 15.336 9.46579 15.0922C7.15016 12.0453 4.91579 9.30315 4.30641 8.2469C3.69704 7.19065 5.15954 6.05315 6.01266 6.96721C6.60172 7.57658 10.9689 12.675 11.172 12.8985C11.3752 13.1219 11.7205 12.8375 11.5986 12.5531C11.4564 12.2891 7.92204 6.1344 7.29235 4.73283C6.74391 3.49377 8.57204 2.33596 9.42516 3.61565C10.1158 4.63127 13.9752 11.05 14.1173 11.2735C14.3002 11.5985 14.7064 11.3953 14.5439 11.0297C14.422 10.7656 12.0455 4.26565 11.8627 3.59533C11.5377 2.41721 13.2236 1.44221 14.0158 2.78283C15.0923 4.63127 17.2252 10.2781 18.9517 12.1875Z" fill="white"/>
</mask>
<g mask="url(#mask0_57_1496)">
<path d="M18.5255 12.2282C16.0067 14.2797 14.8896 17.2047 16.9614 20.2516C17.1442 20.5157 17.5302 20.2719 17.3677 19.9672C16.5146 18.4438 15.8849 15.7016 18.8302 12.8376C19.1755 13.0001 19.5817 12.6547 19.6021 12.3501C19.8255 10.4407 20.0489 8.8563 21.4708 7.96255C22.0192 7.61724 22.7302 7.86099 22.7708 8.6938C22.7708 8.6938 23.2177 8.73443 23.4005 8.75474C23.5021 8.32818 23.7052 7.5563 23.7052 7.53599C23.7052 7.51568 21.3083 6.62193 21.3083 6.62193L19.2161 8.6938L18.5255 12.2282ZM14.463 11.3954C14.7474 11.2532 14.9911 11.0297 14.8692 10.7251C14.7474 10.4001 12.4927 4.26568 12.3505 3.79849C12.0661 2.94537 12.7771 2.27505 13.4067 2.55943C13.7521 2.72193 13.9146 2.17349 13.7317 2.09224C13.5489 2.01099 13.1224 1.62505 12.2692 2.05162C10.7458 2.82349 11.6396 4.52974 12.0458 5.52505C12.4521 6.52037 14.463 11.3954 14.463 11.3954ZM11.5177 12.9188C11.863 12.6751 12.1271 12.4719 11.8224 11.9844C11.6192 11.6594 8.18643 5.42349 7.84112 4.81412C7.3333 3.94068 8.38955 3.1688 8.97862 3.71724C9.24268 3.96099 9.64893 3.43287 9.4458 3.22974C9.24268 3.02662 8.53174 2.43755 7.63799 3.02662C6.74424 3.61568 6.72393 4.32662 6.8458 4.6313C6.94737 4.93599 11.5177 12.9188 11.5177 12.9188ZM9.48643 15.4172C9.73018 15.0516 9.89268 14.8688 9.54737 14.4016C9.20205 13.9344 5.09893 8.57193 4.87549 8.26724C4.30674 7.51568 5.13955 6.86568 5.5458 7.08912C5.93174 7.31255 6.15518 6.68287 5.83018 6.52037C5.50518 6.35787 4.97705 6.17505 4.48955 6.52037C4.00205 6.86568 3.71768 7.57662 3.79893 7.98287C3.85987 8.38912 9.48643 15.4172 9.48643 15.4172Z" fill="#FAA700"/>
<path d="M18.8503 23.075C15.5596 24.6391 13.1018 23.4203 11.5175 21.8766C9.70964 20.1094 8.85652 18.4844 7.65808 17.3875C7.25183 17.0016 4.04245 13.5891 3.65652 13C3.35183 12.5125 3.9612 11.6797 4.63152 12.1469C5.05808 12.4313 5.2612 11.8219 4.97683 11.6594C4.69245 11.4969 4.06277 11.1516 3.39245 11.6594C2.72214 12.1469 2.70183 13.0203 2.86433 13.3047C3.02683 13.5891 12.8987 24.9234 12.8987 24.9234L16.9206 24.8219L19.0737 23.5016L18.8503 23.075Z" fill="#FAA700"/>
</g>
<mask id="mask1_57_1496" style="mask-type:luminance" maskUnits="userSpaceOnUse" x="3" y="2" width="21" height="23">
<path d="M18.9517 12.1875C18.9923 12.2485 19.0939 12.2078 19.0939 12.1469C19.2158 11.05 19.5408 8.02346 21.6939 7.37346C22.3845 7.17033 23.0752 7.65783 23.1564 8.28752C23.2986 9.30315 22.1408 11.9235 22.2423 14.3203C22.2627 14.7063 22.9127 18.7891 21.1861 21.2063C19.4595 23.6235 15.3564 26.0813 11.2736 22.3438C9.1611 20.4141 9.1611 19.6422 6.54079 16.9406C6.01266 16.4125 3.90016 14.0969 3.33141 13.386C2.57985 12.4313 3.77829 11.1719 4.69235 11.8219C5.11891 12.1266 8.89704 15.2953 9.03922 15.4375C9.3236 15.6813 9.66891 15.336 9.46579 15.0922C7.15016 12.0453 4.91579 9.30315 4.30641 8.2469C3.69704 7.19065 5.15954 6.05315 6.01266 6.96721C6.60172 7.57658 10.9689 12.675 11.172 12.8985C11.3752 13.1219 11.7205 12.8375 11.5986 12.5531C11.4564 12.2891 7.92204 6.1344 7.29235 4.73283C6.74391 3.49377 8.57204 2.33596 9.42516 3.61565C10.1158 4.63127 13.9752 11.05 14.1173 11.2735C14.3002 11.5985 14.7064 11.3953 14.5439 11.0297C14.422 10.7656 12.0455 4.26565 11.8627 3.59533C11.5377 2.41721 13.2236 1.44221 14.0158 2.78283C15.0923 4.63127 17.2252 10.2781 18.9517 12.1875Z" fill="white"/>
</mask>
<g mask="url(#mask1_57_1496)">
<path d="M22.6488 7.31252C22.7504 7.57659 22.8723 8.04377 22.7504 8.67346C22.2832 11.0297 21.5113 12.411 21.7551 14.95C22.202 19.825 20.4957 23.5219 14.6254 24.2532C14.0363 24.3344 14.1988 24.7813 14.5035 24.7407C14.6457 24.7203 18.8301 23.9688 18.8301 23.9688C18.8301 23.9688 22.7098 20.6578 22.7098 20.6172C22.7098 20.5766 23.6848 7.94221 23.6848 7.94221L22.6488 7.31252ZM12.4926 2.13284C12.7567 2.17346 13.3254 2.3969 13.7317 3.18909C14.1379 3.98127 16.1285 8.55159 16.3926 9.03909C16.6567 9.52659 17.7332 11.9438 18.6067 12.675C18.891 12.8985 19.0332 12.5125 19.0332 12.5125L19.0535 11.8828L14.341 1.15784L12.777 1.21877L12.4926 2.13284ZM14.4629 11.3953C14.077 11.5781 13.7926 11.7406 13.5082 11.2938C13.3254 10.9688 11.3551 7.5969 8.87696 3.65627C8.67384 3.35159 8.20665 3.08752 7.84103 3.22971C7.4754 3.39221 7.39415 2.92502 7.57696 2.82346C7.75978 2.7219 8.89728 2.09221 9.66915 3.39221C10.441 4.69221 14.4629 11.3953 14.4629 11.3953ZM11.5176 12.9188C11.2129 13.1422 10.9082 13.4266 10.5223 12.9594C10.1567 12.5125 5.99259 7.55627 5.74884 7.25159C5.50509 6.9469 4.99728 6.68284 4.61134 6.92659C4.34728 7.08909 4.10353 6.60159 4.26603 6.47971C4.42853 6.35784 5.34259 5.54534 5.95196 6.23596C6.56134 6.92659 11.5176 12.9188 11.5176 12.9188ZM9.48634 15.4172C9.22228 15.7016 8.9379 15.8641 8.55196 15.5797C8.16603 15.2953 4.7129 12.3906 4.48946 12.1875C4.26603 11.9844 3.61603 11.6797 3.12853 12.1672C2.94571 12.35 2.62071 12.0453 2.80353 11.8625C2.98634 11.6594 3.98165 10.6438 4.77384 11.3141C5.56603 11.9844 9.48634 15.4172 9.48634 15.4172Z" fill="#B55E19"/>
</g>
<path d="M2.153 16.5141C2.78269 18.3828 3.73738 19.5406 5.30144 20.5969C5.58582 20.8 5.42332 21.2063 5.09832 21.0641C3.63582 20.475 2.01082 19.175 1.62488 16.5953C1.56394 16.25 2.05144 16.1891 2.153 16.5141ZM3.37175 15.3969C4.00144 17.2656 4.95613 18.4234 6.52019 19.4797C6.80457 19.6828 6.64207 20.0891 6.31707 19.9469C4.85457 19.3578 3.22957 18.0578 2.84363 15.4781C2.803 15.1328 3.27019 15.0719 3.37175 15.3969ZM18.9921 7.02814C18.5046 5.11876 17.6108 3.90001 16.128 2.76251C15.8436 2.55939 16.0468 2.15314 16.3718 2.29532C17.7936 2.96564 19.3374 4.38751 19.5405 6.98751C19.5608 7.33282 19.0733 7.37345 18.9921 7.02814ZM20.3124 6.05314C19.8249 4.14376 18.9311 2.92501 17.4483 1.78751C17.1639 1.58439 17.3671 1.17814 17.6921 1.32032C19.1139 1.99064 20.6577 3.41251 20.8608 6.01251C20.8811 6.33751 20.4139 6.37814 20.3124 6.05314Z" fill="#B0BEC5"/>
</svg>
